SplineFontDB: 3.0
FontName: Nobile
FullName: Nobile-bold
FamilyName: Nobile-bold
Weight: Bold
Copyright: Copyright (c) 2007-10 by vernon adams. All rights reserved.
Version: 1.000;PS 001.000
ItalicAngle: 0
UnderlinePosition: -85
UnderlineWidth: 90
Ascent: 1638
Descent: 410
sfntRevision: 0x00000000
LayerCount: 2
Layer: 0 0 "Back"  1
Layer: 1 0 "Fore"  0
NeedsXUIDChange: 1
XUID: [1021 759 1887733602 8033504]
FSType: 0
OS2Version: 2
OS2_WeightWidthSlopeOnly: 0
OS2_UseTypoMetrics: 1
CreationTime: 1309302975
ModificationTime: 1309353317
PfmFamily: 17
TTFWeight: 700
TTFWidth: 5
LineGap: 0
VLineGap: 0
Panose: 2 0 8 3 0 0 0 0 0 0
OS2TypoAscent: 776
OS2TypoAOffset: 1
OS2TypoDescent: -522
OS2TypoDOffset: 1
OS2TypoLinegap: 0
OS2WinAscent: -12
OS2WinAOffset: 1
OS2WinDescent: 0
OS2WinDOffset: 1
HheadAscent: -12
HheadAOffset: 1
HheadDescent: 0
HheadDOffset: 1
OS2SubXSize: 1331
OS2SubYSize: 1433
OS2SubXOff: 0
OS2SubYOff: 286
OS2SupXSize: 1331
OS2SupYSize: 1433
OS2SupXOff: 0
OS2SupYOff: 983
OS2StrikeYSize: 102
OS2StrikeYPos: 530
OS2Vendor: 'pyrs'
OS2CodePages: 20000001.00000000
OS2UnicodeRanges: 00000001.00000000.00000000.00000000
Lookup: 258 0 0 "'kern' Horizontal Kerning in Latin lookup 0"  {"'kern' Horizontal Kerning in Latin lookup 0 subtable"  } ['kern' ('latn' <'dflt' > ) ]
MarkAttachClasses: 1
DEI: 91125
ShortTable: maxp 16
  1
  0
  353
  194
  7
  78
  4
  1
  0
  0
  0
  0
  0
  0
  2
  1
EndShort
LangName: 1033 "" "" "" "webfont" "" "Version 1.000;PS 001.000" 
GaspTable: 1 65535 3
Encoding: UnicodeBmp
Compacted: 1
UnicodeInterp: none
NameList: Adobe Glyph List
DisplaySize: -48
AntiAlias: 1
FitToEm: 1
WinInfo: 19 19 13
BeginPrivate: 0
EndPrivate
BeginChars: 65558 353

StartChar: .notdef
Encoding: 65536 -1 0
Width: 748
Flags: HW
LayerCount: 2
Fore
SplineSet
68 0 m 1
 68 1365 l 1
 612 1365 l 1
 612 0 l 1
 68 0 l 1
136 68 m 1
 544 68 l 1
 544 1297 l 1
 136 1297 l 1
 136 68 l 1
EndSplineSet
EndChar

StartChar: exclam
Encoding: 33 33 4
Width: 840
GlyphClass: 2
Flags: HW
LayerCount: 2
Fore
SplineSet
687 1530 m 1
 579 464 l 1
 369 464 l 1
 258 1530 l 1
 687 1530 l 1
485.5 -12 m 128
 375.3343429 -12 297 72.2060650009 297 182 c 128
 297 291.669331221 375.854029569 376 485.5 376 c 128
 595.121898623 376 675 291.666238244 675 182 c 128
 675 72.3299703917 595.120802553 -12 485.5 -12 c 128
EndSplineSet
EndChar

StartChar: quotedbl
Encoding: 34 34 5
Width: 961
GlyphClass: 2
Flags: HW
LayerCount: 2
Fore
SplineSet
176 1578 m 1
 600 1578 l 2
 599.333333333 1578 579.333333333 1449 540 1191 c 2
 480 804 l 1
 260 804 l 1
 176 1578 l 1
698 1578 m 1
 1122 1578 l 2
 1121.33333333 1578 1101.33333333 1449 1062 1191 c 2
 1002 804 l 1
 782 804 l 1
 698 1578 l 1
EndSplineSet
EndChar

StartChar: numbersign
Encoding: 35 35 6
Width: 1544
GlyphClass: 2
Flags: HW
LayerCount: 2
Fore
SplineSet
714 429 m 1
 513 429 l 1
 449 0 l 1
 221 0 l 1
 285 429 l 1
 125 429 l 1
 125 582 l 1
 302 582 l 1
 334 829 l 1
 125 829 l 1
 125 982 l 1
 355 982 l 1
 413 1411 l 1
 639 1411 l 1
 581 982 l 1
 786 982 l 1
 840 1411 l 1
 1069 1411 l 1
 1012 982 l 1
 1166 982 l 1
 1166 829 l 1
 993 829 l 1
 960 582 l 1
 1166 582 l 1
 1166 429 l 1
 941 429 l 1
 879 0 l 1
 651 0 l 1
 714 429 l 1
532 582 m 1
 730 582 l 1
 761 829 l 1
 564 829 l 1
 532 582 l 1
EndSplineSet
EndChar

StartChar: dollar
Encoding: 36 36 7
Width: 1282
GlyphClass: 2
Flags: HW
LayerCount: 2
Fore
SplineSet
143 1168 m 0
 143 1484.46776652 374.192160911 1599 690 1599 c 1
 690 1712 l 1
 800 1712 l 1
 800 1593 l 1
 964.920884464 1578.96418005 1132.1888837 1539.22551131 1242 1482 c 1
 1157 1225 l 1
 1142.20703698 1229.87370365 1127.65748139 1234.99081473 1113 1240 c 2
 1065 1256 l 2
 986.884952562 1282.03834915 894.914594303 1309.87647779 800 1316 c 1
 800 971 l 1
 956 913 l 2
 1057.30832309 874.844917278 1140.37215797 822.696196088 1207.5 751.5 c 128
 1266.33472223 689.099537027 1311 599.139978942 1311 485 c 0
 1311 151.91648154 1115.11826297 -11.9546894216 800 -34 c 1
 800 -147 l 1
 690 -147 l 1
 690 -36 l 1
 528.17707313 -25.2118048753 362.093555814 24.1261258137 247 74 c 2
 194 97 l 1
 193 98 l 1
 258 363 l 2
 258 361 283.166666667 350.166666667 333.5 330.5 c 128
 411.02777166 300.207691868 589.603264609 240 690 240 c 1
 690 682 l 1
 409 799 l 2
 231.666666667 872.333333333 143 995.333333333 143 1168 c 0
690 1320 m 1
 570.105499589 1317.00263749 475 1293.95363146 475 1171 c 0
 475 1096.13219415 540.092134625 1067.91751172 600 1046 c 2
 690 1012 l 1
 690 1320 l 1
800 251 m 1
 893.14781058 271.565101037 973 327.955049269 973 437 c 0
 973 542.207071996 918.651994223 587.860720319 833 623 c 1
 800 637 l 1
 800 251 l 1
EndSplineSet
EndChar

StartChar: percent
Encoding: 37 37 8
Width: 1845
GlyphClass: 2
Flags: HW
LayerCount: 2
Fore
SplineSet
446 917 m 0
 569.526190157 917 606 1009.99995584 606 1150 c 0
 606 1283.02605657 574.473232018 1379 446 1379 c 0
 324.351030456 1379 290 1287.83491821 290 1150 c 0
 290 1017.18407666 318.855871396 917 446 917 c 0
59 1130 m 0
 59 1403.35448814 168.834927796 1579 438 1579 c 0
 621.390292229 1579 736.014290695 1504.34502661 797.5 1384.5 c 128
 832.834515915 1315.62763847 849 1248.01771095 849 1152 c 0
 849 887.089556261 714.206756785 711 446 711 c 0
 212.513585102 711 91.4827639811 854.62754654 64 1058 c 128
 60.6666666667 1082.66666667 59 1106.66666667 59 1130 c 0
1504 206 m 0
 1627.52619016 206 1664 298.999955838 1664 439 c 0
 1664 573.114228455 1633.58978222 668 1504 668 c 0
 1383.22809342 668 1348 576.26026884 1348 439 c 0
 1348 307.024097046 1377.64080608 206 1504 206 c 0
455 -29 m 1
 1222 1674 l 1
 1449 1592 l 1
 674 -107 l 1
 455 -29 l 1
1117 419 m 0
 1117 692.354488137 1226.8349278 868 1496 868 c 0
 1765.92845886 868 1907 706.657406469 1907 441 c 0
 1907 176.025263323 1772.45485767 0 1504 0 c 0
 1270.75346518 0 1149.4668034 143.745654852 1122 347 c 128
 1118.66666667 371.666666667 1117 395.666666667 1117 419 c 0
EndSplineSet
EndChar

StartChar: ampersand
Encoding: 38 38 9
Width: 1608
GlyphClass: 2
Flags: HW
LayerCount: 2
Fore
SplineSet
708 1023 m 1
 812.472772629 1055.99140188 932 1098.88836005 932 1235 c 0
 932 1341.86075147 855.142006669 1387 746 1387 c 0
 621.333333333 1387 559 1338.66666667 559 1242 c 0
 559 1177.21382075 590.626598915 1133.4356346 621 1098 c 1
 646 1073 l 2
 654 1065 661.666666667 1058 669 1052 c 2
 689 1036 l 2
 697.556506793 1030.29566214 701.011308684 1027.19321479 708 1023 c 1
1194 1273 m 0
 1194 1046.60880576 1080.54262178 888.831492234 910 826 c 1
 1232 549 l 1
 1232 901 l 1
 1519 894 l 1
 1519 752.07128637 1501.09630146 534.903200051 1479 426 c 1
 1466 357 l 1
 1732 130 l 1
 1584 -54 l 1
 1345 148 l 1
 1325 124 l 1
 1217.85462581 15.750034321 1000.05648735 -40 764 -40 c 0
 466.078180288 -40 231.251052082 44.4822979818 144 256 c 128
 122 309.333333333 111 369 111 435 c 0
 111 703.973140718 285.262974663 814.865051415 473 897 c 1
 431.926218918 928.946274175 367.925599343 1000.32322953 334 1050 c 128
 301.203826048 1098.022969 260 1187.04420969 260 1265 c 0
 260 1422.66251852 368.840680989 1523.72007508 490.5 1571 c 128
 560.833333333 1598.33333333 640 1612 728 1612 c 0
 909.721583612 1612 1056.60894811 1555.47129697 1135 1452.5 c 128
 1174.33333333 1400.83333333 1194 1341 1194 1273 c 0
424 459 m 0
 424 281.728459177 565.136700271 227 764 227 c 0
 906.402925073 227 1034.69588684 255.797257896 1117.5 311 c 128
 1126.5 317 1131 320.666666667 1131 322 c 1
 684 708 l 1
 554.649708747 675.662427187 424 618.885790528 424 459 c 0
EndSplineSet
EndChar

StartChar: quotesingle
Encoding: 39 39 10
Width: 563
GlyphClass: 2
Flags: HW
LayerCount: 2
Fore
SplineSet
176 1578 m 1
 600 1578 l 2
 599.333333333 1578 579.333333333 1449 540 1191 c 2
 480 804 l 1
 260 804 l 1
 176 1578 l 1
EndSplineSet
EndChar

StartChar: parenleft
Encoding: 40 40 11
Width: 842
GlyphClass: 2
Flags: HW
LayerCount: 2
Fore
SplineSet
477 680 m 0
 477 346.470150702 603.189262667 69.7833107562 776 -94 c 1
 617 -305 l 1
 481.13864469 -203.447067748 373.65575802 -68.1363501807 291.5 91 c 128
 211.838011903 245.305898203 158 452.226629653 158 680 c 0
 158 1032.81947311 273.93554105 1306.60923679 433 1503.5 c 128
 487.666666667 1571.16666667 547.666666667 1629.66666667 613 1679 c 1
 772 1468 l 1
 600.482873266 1305.57847847 477 1012.73000883 477 680 c 0
EndSplineSet
EndChar

StartChar: parenright
Encoding: 41 41 12
Width: 842
GlyphClass: 2
Flags: HW
LayerCount: 2
Fore
SplineSet
446 694 m 0
 446 1027.5298493 319.810737333 1304.21668924 147 1468 c 1
 306 1679 l 1
 441.86135531 1577.44706775 549.34424198 1442.13635018 631.5 1283 c 128
 711.161988097 1128.6941018 765 921.773370347 765 694 c 0
 765 341.180526891 649.06445895 67.3907632121 490 -129.5 c 128
 435.333333333 -197.166666667 375.333333333 -255.666666667 310 -305 c 1
 151 -94 l 1
 322.517126734 68.4215215288 446 361.269991166 446 694 c 0
EndSplineSet
EndChar

StartChar: asterisk
Encoding: 42 42 13
Width: 963
GlyphClass: 2
Flags: HW
LayerCount: 2
Fore
SplineSet
489 1416 m 1
 618 1640 l 1
 813 1524 l 1
 677 1288 l 1
 929 1288 l 1
 929 1094 l 1
 680 1094 l 1
 815 864 l 1
 617 746 l 1
 492 966 l 1
 366 748 l 1
 170 864 l 1
 305 1094 l 1
 37 1094 l 1
 37 1288 l 1
 308 1288 l 1
 171 1528 l 1
 365 1638 l 1
 489 1416 l 1
EndSplineSet
EndChar

StartChar: plus
Encoding: 43 43 14
Width: 1544
GlyphClass: 2
Flags: HW
LayerCount: 2
Fore
SplineSet
1039 450 m 1
 760 450 l 1
 760 97 l 1
 472 97 l 1
 472 450 l 1
 195 450 l 1
 195 719 l 1
 472 719 l 1
 472 1069 l 1
 760 1069 l 1
 760 719 l 1
 1039 719 l 1
 1039 450 l 1
EndSplineSet
EndChar

StartChar: comma
Encoding: 44 44 15
Width: 700
GlyphClass: 2
Flags: HW
LayerCount: 2
Fore
SplineSet
98 0 m 1
 98 415 l 1
 516 415 l 1
 516 53 l 2
 516 -180.955949546 341.905281149 -253.618113759 161 -307 c 1
 99 -193 l 1
 162.333333333 -170.333333333 207.666666667 -145 235 -117 c 128
 262.333333333 -89 276 -50 276 0 c 1
 98 0 l 1
EndSplineSet
EndChar

StartChar: hyphen
Encoding: 45 45 16
Width: 766
GlyphClass: 2
Flags: HW
LayerCount: 2
Fore
SplineSet
894 574 m 1
 100 574 l 1
 100 836 l 1
 894 836 l 1
 894 574 l 1
EndSplineSet
EndChar

StartChar: period
Encoding: 46 46 17
Width: 700
GlyphClass: 2
Flags: HW
LayerCount: 2
Fore
SplineSet
381 0 m 128
 271.234362367 0 188 83.9307569393 188 194 c 128
 188 303.407765029 271.894734729 388 381 388 c 128
 490.032963421 388 577 303.406851652 577 194 c 128
 577 84.588163532 490.032519392 0 381 0 c 128
EndSplineSet
EndChar

StartChar: slash
Encoding: 47 47 18
Width: 674
GlyphClass: 2
Flags: HW
LayerCount: 2
Fore
SplineSet
0 -60 m 1
 571 1667 l 1
 852 1578 l 1
 276 -147 l 1
 0 -60 l 1
EndSplineSet
EndChar

StartChar: zero
Encoding: 48 48 19
Width: 1282
GlyphClass: 2
Flags: HW
LayerCount: 2
Fore
SplineSet
672 946 m 0
 480.080592214 946 414.651943117 786.187299207 418 592 c 1
 420.427740461 390.497541778 469.257910947 233 672 233 c 0
 876.983438327 233 932 396.270758748 932 602 c 0
 932 796.938829391 866.846969829 946 672 946 c 0
88 590 m 0
 88 972.538789954 290.734114575 1206 672 1206 c 0
 1057.2908952 1206 1260 975.441741362 1260 590 c 0
 1260 328.315161211 1164.2291884 146.273821942 994 49 c 128
 905.333333333 -1.66666666667 798.166666667 -27 672.5 -27 c 128
 414.535551321 -27 237.958000625 86.202670444 153.5 263.5 c 128
 109.833333333 355.166666667 88 464 88 590 c 0
EndSplineSet
EndChar

StartChar: one
Encoding: 49 49 20
Width: 1282
GlyphClass: 2
Flags: HW
LayerCount: 2
Fore
SplineSet
459 0 m 1
 459 892 l 1
 303 825 l 1
 209 1063 l 1
 476 1171 l 1
 807 1169 l 1
 807 0 l 1
 459 0 l 1
EndSplineSet
EndChar

StartChar: two
Encoding: 50 50 21
Width: 1282
GlyphClass: 2
Flags: HW
LayerCount: 2
Fore
SplineSet
145 1064 m 1
 258.108751361 1120.55437568 424.277501089 1191 597 1191 c 256
 805.419485989 1191 969.827780884 1121.48231617 1034.5 974.5 c 128
 1052.83333333 932.833333333 1062 886 1062 834 c 0
 1062 755.333333333 1042.83333333 683.833333333 1004.5 619.5 c 128
 966.166666667 555.166666667 899 480.666666667 803 396 c 2
 659 268 l 1
 1031 268 l 1
 1031 0 l 1
 173 0 l 1
 173 217 l 1
 498 492 l 2
 503.030423681 495.772817761 559.347416352 542.864370091 564 547 c 2
 597 576 l 2
 613.666666667 590.666666667 625.333333333 602 632 610 c 2
 661 642 l 2
 686.248929694 668.511376179 692.850267856 681.579068875 709.5 712.5 c 128
 721.348018323 734.5034626 729 756.119337474 729 786 c 0
 729 887.341080559 679.033116979 930 575 930 c 0
 502.409386549 930 420.863810382 903.574144971 363 880 c 2
 283 847 l 2
 265.666666667 839.666666667 250.333333333 832.666666667 237 826 c 1
 236 825 l 1
 145 1064 l 1
EndSplineSet
EndChar

StartChar: three
Encoding: 51 51 22
Width: 1282
GlyphClass: 2
Flags: HW
LayerCount: 2
Fore
SplineSet
505 82 m 0
 629.744966241 82 709 116.241152066 709 236 c 0
 709 326.764590288 630.204129836 382.470907344 555.5 405.5 c 128
 511.166666667 419.166666667 463.666666667 425.333333333 413 424 c 1
 413 670 l 1
 520.357434217 670 618.779533992 692.084569032 664 755 c 128
 679.333333333 776.333333333 687 801 687 829 c 0
 687 911.15850232 609.007361271 940 522 940 c 0
 412.364719041 940 327.629838457 901.209946152 246 874 c 1
 237 870 l 1
 123 1099 l 1
 141 1109 l 1
 233.097330611 1157.47227927 354.525406645 1202 497 1202 c 0
 789.212584019 1202 990.129921639 1108.10825198 997 823 c 0
 999.885847576 687.36516391 908.766342074 574.88845019 796 547 c 1
 920.96096498 516.372312505 1033 389.352597915 1033 239 c 256
 1033 -56.8959954356 810.984219937 -176 515 -176 c 0
 400.272280321 -176 291.692671332 -157.132140696 207.5 -132 c 128
 174.788785254 -122.235458285 163.714130615 -117.352877312 141 -108 c 1
 224 144 l 1
 225 144 l 1
 286.120626475 118.996107351 411.460169222 82 505 82 c 0
EndSplineSet
EndChar

StartChar: four
Encoding: 52 52 23
Width: 1282
GlyphClass: 2
Flags: HW
LayerCount: 2
Fore
SplineSet
733 1217 m 1
 985 1151 l 1
 985 317 l 1
 1165 317 l 1
 1165 59 l 1
 985 59 l 1
 985 -217 l 1
 697 -216 l 1
 697 59 l 1
 125 59 l 1
 84 260 l 1
 733 1217 l 1
417 315 m 1
 697 315 l 1
 697 733 l 1
 417 315 l 1
EndSplineSet
EndChar

StartChar: five
Encoding: 53 53 24
Width: 1282
GlyphClass: 2
Flags: HW
LayerCount: 2
Fore
SplineSet
596 741 m 0
 878.269833407 741 1061 565.107154785 1061 284 c 0
 1061 78.0383287187 952.915604098 -62.4994474692 806.5 -130.5 c 128
 668.968347385 -194.374533223 494.300771989 -193.505455232 331.5 -153 c 128
 261.833333333 -135.666666667 198.333333333 -114.666666667 141 -90 c 1
 183 161 l 1
 204 153 l 1
 294.968772023 120.511152849 413.069720864 86 535 86 c 1
 673.062461363 84.7216438763 763.382122735 144.551971988 762 280 c 0
 760.706523969 413.22803123 695.644799162 507.36372244 562 506 c 0
 494.666666667 506 411.333333333 479 312 425 c 1
 172 549 l 1
 172 1169 l 1
 977 1169 l 1
 977 924 l 1
 453 924 l 1
 453 699 l 2
 453 700.333333333 458.5 704.166666667 469.5 710.5 c 128
 495.450909513 725.44143275 551.734764813 741 596 741 c 0
EndSplineSet
EndChar

StartChar: six
Encoding: 54 54 25
Width: 1282
GlyphClass: 2
Flags: HW
LayerCount: 2
Fore
SplineSet
853 433 m 0
 853 553.99337516 792.105624186 621 672 621 c 0
 584.666666667 621 507.666666667 589.333333333 441 526 c 1
 441 457 l 1
 445.831294573 290.320337237 493.733822873 160 664 160 c 0
 814.427316003 160 853 282.352181662 853 433 c 0
1167 386 m 0
 1167 151.828324064 1049.16107069 1.77564597843 876.5 -64 c 128
 813.5 -88 743.333333333 -100 666 -100 c 0
 395.741633024 -100 226.113215367 41.7350732784 152.5 240 c 128
 127.5 307.333333333 115 379.333333333 115 456 c 0
 115 780.320834764 251.634663533 994.76468109 434.5 1140.5 c 128
 562.469680956 1242.48598939 709.846638195 1311.14450537 889 1358 c 1
 969 1094 l 1
 772.333333333 1054 630.333333333 976 543 860 c 1
 591 869.333333333 636.333333333 874 679 874 c 0
 914.168939851 874 1065.90086677 741.341254795 1132.5 570.5 c 128
 1155.5 511.5 1167 450 1167 386 c 0
EndSplineSet
EndChar

StartChar: seven
Encoding: 55 55 26
Width: 1282
GlyphClass: 2
Flags: HW
LayerCount: 2
Fore
SplineSet
1001 1169 m 1
 1083 989 l 1
 495 -236 l 1
 198 -104 l 1
 686 911 l 1
 123 911 l 1
 123 1169 l 1
 1001 1169 l 1
EndSplineSet
EndChar

StartChar: eight
Encoding: 56 56 27
Width: 1282
GlyphClass: 2
Flags: HW
LayerCount: 2
Fore
SplineSet
403 612 m 1
 258.827307504 641.087473047 140 766.122409177 140 936 c 0
 140 1142.18575674 273.835050114 1251.64632106 437 1298 c 128
 495.666666667 1314.66666667 559.166666667 1323 627.5 1323 c 128
 840.110446127 1323 1003.45114484 1245.73393972 1076 1103.5 c 128
 1101.33333333 1053.83333333 1114 998 1114 936 c 0
 1114 765.637034167 996.054574631 641.010914926 851 612 c 1
 978.532818092 593.781025987 1073.23080186 506.965383191 1116.5 401 c 128
 1132.83333333 361 1141 319 1141 275 c 0
 1141 38.8929399267 979.678079612 -75.2517943597 781.5 -113 c 128
 732.5 -122.333333333 681 -127 627 -127 c 128
 392.11925372 -127 211.564457076 -44.171336181 141.5 123 c 128
 122.5 168.333333333 113 219 113 275 c 0
 113 423.327980333 198.67825048 522.160194975 296 575.5 c 128
 330.666666667 594.5 366.333333333 606.666666667 403 612 c 1
627.5 137 m 128
 752.339145123 137 819 174.89956581 819 297 c 0
 819 424.193294639 753.696629234 510 627 510 c 128
 500.308054227 510 435 424.184589954 435 297 c 1
 436.382092821 175.375831795 502.057959357 137 627.5 137 c 128
627 754 m 128
 744.385437998 754 801 804.457514493 801 922 c 0
 801 1020 743 1069 627 1069 c 128
 511 1069 453 1020 453 922 c 1
 454.330079222 804.953028476 509.046396671 754 627 754 c 128
EndSplineSet
EndChar

StartChar: nine
Encoding: 57 57 28
Width: 1282
GlyphClass: 2
Flags: HW
LayerCount: 2
Fore
SplineSet
827 648 m 1
 824.473122787 809.720141655 767.675201558 928 604 928 c 256
 446.48268972 928 411.47023998 839.625118749 409 684 c 0
 407.722779277 575.436238518 472.953548195 493 579 493 c 0
 626.823076962 493 726.868370806 501.596914225 772 506 c 2
 812 510 l 1
 827 648 l 1
582 1188 m 0
 936.284641656 1188 1148 985.128698449 1148 633 c 0
 1148 418.167389981 1068.67470221 229.638863559 971 106 c 128
 830.255605329 -72.157461609 624.795264988 -214.093354858 372 -270 c 1
 294 -4 l 1
 482.444704492 34.6873234387 638.257915187 130.753870695 725 263 c 1
 680.333333333 251 633 245 583 245 c 0
 295.283339886 245 94 412.080167501 94 698 c 0
 94 902.38322034 189.574722046 1049.7984934 326 1126 c 128
 400 1167.33333333 485.333333333 1188 582 1188 c 0
EndSplineSet
EndChar

StartChar: colon
Encoding: 58 58 29
Width: 737
GlyphClass: 2
Flags: HW
LayerCount: 2
Fore
SplineSet
207 736 m 1
 207 1168 l 1
 625 1168 l 1
 625 736 l 1
 207 736 l 1
207 0 m 1
 207 432 l 1
 625 432 l 1
 625 0 l 1
 207 0 l 1
EndSplineSet
EndChar

StartChar: semicolon
Encoding: 59 59 30
Width: 737
GlyphClass: 2
Flags: HW
LayerCount: 2
Fore
SplineSet
119 0 m 1
 119 415 l 1
 537 415 l 1
 537 53 l 2
 537 -180.955949546 362.905281149 -253.618113759 182 -307 c 1
 120 -193 l 1
 183.333333333 -170.333333333 228.666666667 -145 256 -117 c 128
 283.333333333 -89 297 -50 297 0 c 1
 119 0 l 1
117 736 m 1
 117 1168 l 1
 535 1168 l 1
 535 736 l 1
 117 736 l 1
EndSplineSet
EndChar

StartChar: less
Encoding: 60 60 31
Width: 1544
GlyphClass: 2
Flags: HW
LayerCount: 2
Fore
SplineSet
195 476 m 1
 195 712 l 1
 1035 1225 l 1
 1036 924 l 1
 490 594 l 1
 1036 264 l 1
 1035 -37 l 1
 195 476 l 1
EndSplineSet
EndChar

StartChar: equal
Encoding: 61 61 32
Width: 1544
GlyphClass: 2
Flags: HW
LayerCount: 2
Fore
SplineSet
1191 644 m 1
 195 644 l 1
 195 877 l 1
 1191 877 l 1
 1191 644 l 1
1191 269 m 1
 195 269 l 1
 195 502 l 1
 1191 502 l 1
 1191 269 l 1
EndSplineSet
EndChar

StartChar: greater
Encoding: 62 62 33
Width: 1544
GlyphClass: 2
Flags: HW
LayerCount: 2
Fore
SplineSet
1036 476 m 1
 196 -37 l 1
 195 264 l 1
 733 594 l 1
 195 924 l 1
 196 1225 l 1
 1036 712 l 1
 1036 476 l 1
EndSplineSet
EndChar

StartChar: question
Encoding: 63 63 34
Width: 1069
GlyphClass: 2
Flags: HW
LayerCount: 2
Fore
SplineSet
127 1463 m 1
 250.541603298 1525.89390713 392.641484307 1555 575 1555 c 0
 808.606786434 1555 1003.47148528 1496.67490076 1089 1347 c 128
 1118.33333333 1295.66666667 1133 1235 1133 1165 c 0
 1133 995.29914751 1050.75268276 886.481428088 950.5 810 c 128
 875.81209559 753.021598698 764.661406656 705.498489146 655 674 c 1
 655 420 l 1
 334 420 l 1
 334 829 l 1
 352.666666667 836.333333333 376.666666667 844.666666667 406 854 c 2
 484 880 l 1
 599.559527998 917.386906117 737.015834164 964.476735261 782.5 1070 c 128
 790.833333333 1089.33333333 795 1110 795 1132 c 0
 795 1268.22192669 681.409912528 1282 545 1282 c 0
 467.628983618 1282 327.448303423 1247.35383148 265.5 1228.5 c 128
 227.166666667 1216.83333333 208 1210.66666667 208 1210 c 2
 127 1463 l 1
511 -69 m 128
 402.178051243 -69 322 15.1944925184 322 125 c 128
 322 234.402237255 401.797878752 319 511 319 c 128
 620.202112321 319 700 234.397207869 700 125 c 128
 700 15.5977627448 620.202121248 -69 511 -69 c 128
EndSplineSet
EndChar

StartChar: at
Encoding: 64 64 35
Width: 1843
GlyphClass: 2
Flags: HW
LayerCount: 2
Fore
SplineSet
772 635 m 0
 772 545.941327425 820.62083701 453 907 453 c 0
 1049.09309658 453 1111.68636421 567.847522099 1152.5 670.5 c 128
 1187.6290752 758.854946712 1206.87146656 864.667359374 1225 968 c 1
 1191.84763573 973.361673091 1095.28513441 987 1049 987 c 0
 853.622669952 987 772 847.810096023 772 635 c 0
1325 -58 m 1
 1240.68691269 -107.517210005 1101.64048302 -133 966 -133 c 0
 570.498751754 -135.103730044 300.946698916 43.986810027 183.5 324.5 c 128
 143.166666667 420.833333333 123 526.666666667 123 642 c 0
 123 971.327208913 267.214878333 1202.9082929 458.5 1351 c 128
 598.287210258 1459.22235633 806.944730409 1532 1052 1532 c 0
 1285.3291134 1532 1479.88429918 1451.69803355 1615.5 1342 c 128
 1753.37859185 1230.47153903 1862 1040.4203694 1862 800 c 0
 1862 640.740034726 1810.82738635 506.313282073 1737.5 414.5 c 128
 1697.83333333 364.833333333 1658.16666667 328.5 1618.5 305.5 c 128
 1578.83333333 282.5 1500 271 1382 271 c 0
 1264.90748194 271 1211 354.92069509 1211 475 c 0
 1211 491.666666667 1212 509 1214 527 c 1
 1159.51629717 372.888954854 1097.08405473 257 899 257 c 0
 713.113055591 257 619.43999976 359.34312553 559 492.5 c 128
 537.666666667 539.5 527 595 527 659 c 0
 527 826.805260591 605.992227589 957.022001602 695 1037 c 128
 777.809827497 1111.4088305 895.326458077 1165 1044 1165 c 0
 1188.98114765 1165 1329.28366631 1129.55258252 1395.5 1049.5 c 128
 1417.83333333 1022.5 1429 992 1429 958 c 0
 1429 947.333333333 1428.33333333 938.333333333 1427 931 c 2
 1346 466 l 1
 1507.33745143 493.094839171 1594 579.382438647 1594 758 c 0
 1594 1114.21245329 1384.4778342 1292 1027 1292 c 0
 839 1292 688.166666667 1231.5 574.5 1110.5 c 128
 460.833333333 989.5 404 833.333333333 404 642 c 0
 404 274.450457894 636.330713957 95 1007 95 c 0
 1091 95 1179 113.333333333 1271 150 c 1
 1325 -58 l 1
EndSplineSet
EndChar

StartChar: A
Encoding: 65 65 36
Width: 1462
GlyphClass: 2
Flags: HW
LayerCount: 2
Fore
SplineSet
737 1137 m 1
 535 520 l 1
 927 520 l 1
 737 1137 l 1
528 1578 m 1
 934 1578 l 1
 1454 0 l 1
 1085 0 l 1
 974 350 l 1
 488 350 l 1
 377 0 l 1
 8 0 l 1
 528 1578 l 1
EndSplineSet
EndChar

StartChar: B
Encoding: 66 66 37
Width: 1520
GlyphClass: 2
Flags: HW
LayerCount: 2
Fore
SplineSet
539 1323 m 1
 539 928 l 1
 678 928 l 2
 898 928 1008 997 1008 1135 c 0
 1008 1195.66666667 993 1239 963 1265 c 0
 919 1303.66666667 824.666666667 1323 680 1323 c 2
 539 1323 l 1
1027 465 m 128
 1027 671.478498807 896.458657304 703 676 703 c 2
 539 703 l 1
 539 254 l 1
 658 254 l 2
 825.958334694 254 844.643884938 254.944244621 926 284 c 128
 963.149191137 297.267568263 980.660174216 317.608845196 1000 348 c 0
 1018 374.666666667 1027 413.666666667 1027 465 c 128
1334 1160 m 0
 1334 968.771011947 1172.33878217 850.277579274 992 832 c 1
 1186 802.666666667 1308.66666667 733.666666667 1360 625 c 0
 1380.66666667 581 1391 526.5 1391 461.5 c 128
 1391 246.181780031 1283.67251583 123.619144118 1126 62 c 0
 1021.33333333 20.6666666667 882 0 708 0 c 2
 170 0 l 1
 170 1578 l 1
 588 1578 l 2
 769.333333333 1578 904.333333333 1565.83333333 993 1541.5 c 128
 1081.66666667 1517.16666667 1147.33333333 1490 1190 1460 c 0
 1286 1393.33333333 1334 1293.33333333 1334 1160 c 0
EndSplineSet
EndChar

StartChar: C
Encoding: 67 67 38
Width: 1376
GlyphClass: 2
Flags: HW
LayerCount: 2
Fore
SplineSet
92 791.5 m 128
 92 1281.04814149 314.456086441 1602 785 1602 c 0
 931.666666667 1602 1064.66666667 1577.33333333 1184 1528 c 0
 1210 1516.66666667 1229 1507 1241 1499 c 2
 1259 1487 l 1
 1159 1227 l 1
 1069.22989616 1294.32083433 954.400942719 1336 811.5 1336 c 128
 691.166666667 1336 602.333333333 1292 545 1204 c 128
 487.666666667 1116 459 975.333333333 459 782 c 0
 459 420 579 239 819 239 c 0
 939.666666667 239 1053 275.333333333 1159 348 c 1
 1259 88 l 1
 1180.91824657 22.6292296836 970.309960155 -29 785 -29 c 0
 320.948683228 -29 92 306.554735262 92 791.5 c 128
EndSplineSet
EndChar

StartChar: D
Encoding: 68 68 39
Width: 1565
GlyphClass: 2
Flags: HW
LayerCount: 2
Fore
SplineSet
980 354.5 m 128
 1071.65231575 447.540987196 1099 591.169811614 1099 785 c 128
 1099 923.073913381 1091.05289575 1045.89420849 1045 1138 c 1
 971.543017209 1276.43815987 840.601137535 1326 622 1326 c 2
 539 1326 l 1
 539 254 l 1
 622 254 l 2
 794.666666667 254 914 287.5 980 354.5 c 128
1469 782 m 0
 1469 260.022331123 1194.54660615 0 661 0 c 2
 170 0 l 1
 170 1578 l 1
 661 1578 l 2
 1199.66666667 1578 1469 1312.66666667 1469 782 c 0
EndSplineSet
EndChar

StartChar: E
Encoding: 69 69 40
Width: 1385
GlyphClass: 2
Flags: HW
LayerCount: 2
Fore
SplineSet
1250 0 m 1
 170 0 l 1
 170 1578 l 1
 1240 1578 l 1
 1240 1309 l 1
 538 1309 l 1
 538 929 l 1
 1150 929 l 1
 1150 703 l 1
 538 703 l 1
 538 266 l 1
 1250 266 l 1
 1250 0 l 1
EndSplineSet
EndChar

StartChar: F
Encoding: 70 70 41
Width: 1355
GlyphClass: 2
Flags: HW
LayerCount: 2
Fore
SplineSet
538 702 m 1
 538 0 l 1
 170 0 l 1
 170 1578 l 1
 1200 1578 l 1
 1200 1309 l 1
 538 1309 l 1
 538 928 l 1
 1174 928 l 1
 1174 702 l 1
 538 702 l 1
EndSplineSet
EndChar

StartChar: G
Encoding: 71 71 42
Width: 1553
GlyphClass: 2
Flags: HW
LayerCount: 2
Fore
SplineSet
870 1335 m 0
 573.449476657 1335 461 1090.35342002 461 768 c 0
 461 566.781463349 503.787184308 406.078477206 607.5 310.5 c 128
 658.5 263.5 721 240 795 240 c 0
 915 240 1015 261.333333333 1095 304 c 1
 1095 655 l 1
 737 655 l 1
 737 879 l 1
 1418 879 l 1
 1418 0 l 1
 1181 0 l 1
 1133 126 l 1
 1078.04961192 21.594262639 927.757548516 -37 765 -37 c 0
 309.375477762 -37 92 289.343113798 92 770 c 0
 92 1276.28252025 360.462805322 1599 862 1599 c 0
 1022.91918618 1599 1162.97883344 1569.21015995 1265.5 1520 c 128
 1301.66110804 1502.64266814 1312.14359039 1494.43650034 1336 1479 c 1
 1229 1233 l 1
 1156.98162349 1269.00918825 988.315689371 1335 870 1335 c 0
EndSplineSet
EndChar

StartChar: H
Encoding: 72 72 43
Width: 1636
GlyphClass: 2
Flags: HW
LayerCount: 2
Fore
SplineSet
1097 0 m 1
 1097 704 l 1
 539 704 l 1
 539 0 l 1
 170 0 l 1
 170 1578 l 1
 539 1578 l 1
 539 930 l 1
 1097 930 l 1
 1097 1578 l 1
 1466 1578 l 1
 1466 0 l 1
 1097 0 l 1
EndSplineSet
EndChar

StartChar: I
Encoding: 73 73 44
Width: 1050
GlyphClass: 2
Flags: HW
LayerCount: 2
Fore
SplineSet
170 170 m 1
 340 170 l 1
 340 1407 l 1
 170 1407 l 1
 170 1578 l 1
 880 1578 l 1
 880 1407 l 1
 709 1407 l 1
 709 170 l 1
 880 170 l 1
 880 0 l 1
 170 0 l 1
 170 170 l 1
EndSplineSet
EndChar

StartChar: J
Encoding: 74 74 45
Width: 760
GlyphClass: 2
Flags: HW
LayerCount: 2
Fore
SplineSet
-102 -35 m 1
 44.6492130524 -18.1714017809 137.815535324 12.977766958 184 119.5 c 128
 204.666666667 167.166666667 215 233 215 317 c 2
 215 1578 l 1
 584 1578 l 1
 584 350 l 1
 594.68715129 -84.1655211495 412.764065386 -265.649687436 -8 -275 c 1
 -102 -35 l 1
EndSplineSet
EndChar

StartChar: K
Encoding: 75 75 46
Width: 1444
GlyphClass: 2
Flags: HW
LayerCount: 2
Fore
SplineSet
539 676 m 1
 539 0 l 1
 170 0 l 1
 170 1578 l 1
 539 1578 l 1
 539 901 l 1
 621 901 l 1
 1069 1578 l 1
 1445 1578 l 1
 912 797 l 1
 1500 0 l 1
 1115 0 l 1
 613 676 l 1
 539 676 l 1
EndSplineSet
EndChar

StartChar: L
Encoding: 76 76 47
Width: 1271
GlyphClass: 2
Flags: HW
LayerCount: 2
Fore
SplineSet
1221 0 m 1
 170 0 l 1
 170 1578 l 1
 538 1578 l 1
 538 253 l 1
 1221 253 l 1
 1221 0 l 1
EndSplineSet
EndChar

StartChar: M
Encoding: 77 77 48
Width: 2009
GlyphClass: 2
Flags: HW
LayerCount: 2
Fore
SplineSet
834 0 m 1
 476 1085 l 1
 476 0 l 1
 170 0 l 1
 170 1578 l 1
 605 1578 l 1
 997 408 l 1
 1403 1578 l 1
 1839 1578 l 1
 1839 0 l 1
 1533 0 l 1
 1533 1085 l 1
 1178 0 l 1
 834 0 l 1
EndSplineSet
EndChar

StartChar: N
Encoding: 78 78 49
Width: 1672
GlyphClass: 2
Flags: HW
LayerCount: 2
Fore
SplineSet
1502 0 m 1
 1121 0 l 1
 499 1074 l 1
 499 0 l 1
 170 0 l 1
 170 1578 l 1
 564 1578 l 1
 1175 519 l 1
 1175 1578 l 1
 1502 1578 l 1
 1502 0 l 1
EndSplineSet
EndChar

StartChar: O
Encoding: 79 79 50
Width: 1604
GlyphClass: 2
Flags: HW
LayerCount: 2
Fore
SplineSet
802 1605 m 128
 1292.39879654 1605 1512 1287.27507178 1512 789 c 0
 1512 291.176916578 1298.94232433 -28 802 -28 c 128
 305.06286194 -28 92 291.188904062 92 789 c 0
 92 1287.34690501 311.55697414 1605 802 1605 c 128
802 1339 m 128
 517.545006964 1339 461 1075.55763389 461 789 c 256
 461 502.50144119 517.58299378 238 802 238 c 128
 1086.41439738 238 1143 502.521647824 1143 789 c 256
 1143 1075.57753036 1086.45790878 1339 802 1339 c 128
EndSplineSet
EndChar

StartChar: P
Encoding: 80 80 51
Width: 1446
GlyphClass: 2
Flags: HW
LayerCount: 2
Fore
SplineSet
1003 1048 m 0
 1003 1282.46156595 863.299324504 1354 629 1354 c 2
 539 1354 l 1
 539 772 l 1
 599 772 l 2
 822.028253159 772 1003 825.54006514 1003 1048 c 0
629 1578 m 2
 1055.37948033 1578 1371 1477.75550766 1371 1052 c 0
 1371 630.451712971 1024.67814334 552 601 552 c 2
 539 552 l 1
 539 0 l 1
 170 0 l 1
 170 1578 l 1
 629 1578 l 2
EndSplineSet
EndChar

StartChar: Q
Encoding: 81 81 52
Width: 1604
GlyphClass: 2
Flags: HW
LayerCount: 2
Fore
SplineSet
802 1339 m 128
 518.542124758 1339 461 1074.77275075 461 789 c 128
 461 550.056281083 500.781511602 343.553781989 663 266.5 c 128
 703 247.5 749.333333333 238 802 238 c 128
 1086.59873919 238 1143 503.742555173 1143 789 c 128
 1143 1028.41228745 1103.43635521 1233.7297009 940 1310 c 0
 900.666666667 1329.33333333 854.666666667 1339 802 1339 c 128
802 1605 m 128
 1292.39879654 1605 1512 1287.27507178 1512 789 c 0
 1512 356.074352404 1348.54928994 63.3396274872 990 -10 c 1
 1278 -234 l 1
 1104 -420 l 1
 648 -16 l 1
 263.070767597 44.0598802331 92 343.933956473 92 789 c 0
 92 1287.34690501 311.55697414 1605 802 1605 c 128
EndSplineSet
EndChar

StartChar: R
Encoding: 82 82 53
Width: 1484
GlyphClass: 2
Flags: HW
LayerCount: 2
Fore
SplineSet
1383 1173 m 0
 1383 892.504544434 1183.89377025 798.606765659 916 786 c 1
 1190.59297092 758.288782751 1415 683.081181229 1415 382 c 2
 1415 0 l 1
 1050 0 l 1
 1050 407 l 2
 1050 627.617509786 897.786187536 676 677 676 c 2
 539 676 l 1
 539 0 l 1
 170 0 l 1
 170 1578 l 1
 589 1578 l 2
 804.877106914 1578 992.167029562 1563.78164164 1139.5 1512.5 c 128
 1288.91089483 1460.4951029 1383 1366.26242706 1383 1173 c 0
582 899 m 2
 804.471042964 899 1015 910.907581689 1015 1130 c 0
 1015 1340.31400005 836.892260529 1354 624 1354 c 2
 539 1354 l 1
 539 899 l 1
 582 899 l 2
EndSplineSet
EndChar

StartChar: S
Encoding: 83 83 54
Width: 1437
GlyphClass: 2
Flags: HW
LayerCount: 2
Fore
SplineSet
751 1331 m 0
 615.275422669 1331 466 1322.67023048 466 1188 c 0
 466 1141.98534036 475.734726742 1128.99187821 507 1101.5 c 128
 526.333333333 1084.5 553.333333333 1069 588 1055 c 2
 944 914 l 2
 1112.31225856 846.902545576 1303 687.571978807 1303 466 c 0
 1303 128 1108.33333333 -41 719 -41 c 0
 508.653921544 -41 328.460870995 22.410627225 196 96 c 1
 157 120 l 1
 155 121 l 1
 236 398 l 1
 325.708256217 340.912927862 452.800425764 284.895411181 573 253.5 c 128
 659.852324934 230.814691248 739.916592092 232.766193346 828 245 c 128
 911.086513851 256.53979359 961 295.504691845 961 390 c 0
 961 495.567406835 907.640976864 538.904920764 821 574 c 2
 397 748 l 2
 240.285697115 812.599788975 131 950.365104272 131 1159 c 0
 131 1359.68048601 248.853444991 1472.95563897 386.5 1539.5 c 128
 477.86886323 1583.67170209 585.145984154 1609 713 1609 c 0
 873.95587519 1609 1023.94422265 1562.77276233 1140.5 1520 c 128
 1176.83333333 1506.66666667 1205 1495.33333333 1225 1486 c 2
 1254 1472 l 1
 1160 1194 l 1
 1088.52990167 1247.60257375 984.846846986 1291.64576023 878.5 1316 c 128
 834.833333333 1326 792.333333333 1331 751 1331 c 0
EndSplineSet
EndChar

StartChar: T
Encoding: 84 84 55
Width: 1197
GlyphClass: 2
Flags: HW
LayerCount: 2
Fore
SplineSet
1188 1324 m 1
 786 1324 l 1
 786 0 l 1
 417 0 l 1
 417 1324 l 1
 8 1324 l 1
 8 1578 l 1
 1188 1578 l 1
 1188 1324 l 1
EndSplineSet
EndChar

StartChar: U
Encoding: 85 85 56
Width: 1675
GlyphClass: 2
Flags: HW
LayerCount: 2
Fore
SplineSet
838 -37 m 0
 361.723930625 -37 170 238.293986537 170 723 c 2
 170 1578 l 1
 539 1578 l 1
 539 719 l 1
 542.065557453 532.000995376 543.574549103 496.918500623 575 395.5 c 128
 606.566857423 293.625141952 691.387940902 229 820 229 c 128
 937.483150662 229 997.80699725 250.069374967 1053.5 307 c 128
 1082.592814 336.739320982 1101.86795307 390.625724292 1114.5 436.5 c 128
 1136.59115248 516.72576427 1136 608.19301717 1136 719 c 2
 1136 1578 l 1
 1505 1578 l 1
 1505 723 l 2
 1505 239.674720411 1314.65232235 -37 838 -37 c 0
EndSplineSet
EndChar

StartChar: V
Encoding: 86 86 57
Width: 1364
GlyphClass: 2
Flags: HW
LayerCount: 2
Fore
SplineSet
352 1578 m 1
 686 503 l 1
 1008 1578 l 1
 1356 1578 l 1
 864 0 l 1
 498 0 l 1
 8 1578 l 1
 352 1578 l 1
EndSplineSet
EndChar

StartChar: W
Encoding: 87 87 58
Width: 2064
GlyphClass: 2
Flags: HW
LayerCount: 2
Fore
SplineSet
836 1565 m 1
 1229 1565 l 1
 1436 448 l 1
 1653 1578 l 1
 2009 1578 l 1
 1671 0 l 1
 1266 0 l 1
 1032 1205 l 1
 799 0 l 1
 393 0 l 1
 55 1578 l 1
 412 1578 l 1
 629 448 l 1
 836 1565 l 1
EndSplineSet
EndChar

StartChar: X
Encoding: 88 88 59
Width: 1448
GlyphClass: 2
Flags: HW
LayerCount: 2
Fore
SplineSet
724 1067 m 1
 1030 1578 l 1
 1413 1578 l 1
 930 797 l 1
 1413 0 l 1
 1022 0 l 1
 724 494 l 1
 426 0 l 1
 35 0 l 1
 518 797 l 1
 35 1578 l 1
 418 1578 l 1
 724 1067 l 1
EndSplineSet
EndChar

StartChar: Y
Encoding: 89 89 60
Width: 1326
GlyphClass: 2
Flags: HW
LayerCount: 2
Fore
SplineSet
660 905 m 1
 970 1578 l 1
 1344 1578 l 1
 834 518 l 1
 834 0 l 1
 486 0 l 1
 486 518 l 1
 -18 1578 l 1
 350 1578 l 1
 660 905 l 1
EndSplineSet
EndChar

StartChar: Z
Encoding: 90 90 61
Width: 1277
GlyphClass: 2
Flags: HW
LayerCount: 2
Fore
SplineSet
1192 1578 m 1
 1192 1354 l 1
 497 296 l 1
 1194 296 l 1
 1194 0 l 1
 84 0 l 1
 84 251 l 1
 786 1324 l 1
 84 1324 l 1
 84 1578 l 1
 1192 1578 l 1
EndSplineSet
EndChar

StartChar: bracketleft
Encoding: 91 91 62
Width: 842
GlyphClass: 2
Flags: HW
LayerCount: 2
Fore
SplineSet
158 1578 m 1
 908 1578 l 1
 908 1316 l 1
 490 1316 l 1
 490 262 l 1
 908 262 l 1
 908 0 l 1
 158 0 l 1
 158 1578 l 1
EndSplineSet
EndChar

StartChar: backslash
Encoding: 92 92 63
Width: 674
GlyphClass: 2
Flags: HW
LayerCount: 2
Fore
SplineSet
321 1687 m 1
 892 -36 l 1
 572 -147 l 1
 0 1578 l 1
 321 1687 l 1
EndSplineSet
EndChar

StartChar: bracketright
Encoding: 93 93 64
Width: 842
GlyphClass: 2
Flags: HW
LayerCount: 2
Fore
SplineSet
125 1578 m 1
 875 1578 l 1
 875 0 l 1
 125 0 l 1
 125 262 l 1
 541 262 l 1
 541 1316 l 1
 125 1316 l 1
 125 1578 l 1
EndSplineSet
EndChar

StartChar: asciicircum
Encoding: 94 94 65
Width: 1544
GlyphClass: 2
Flags: HW
LayerCount: 2
Fore
SplineSet
444 1182 m 1
 698 1182 l 1
 956 563 l 1
 682 563 l 1
 570 947 l 1
 458 563 l 1
 186 563 l 1
 444 1182 l 1
EndSplineSet
EndChar

StartChar: underscore
Encoding: 95 95 66
Width: 922
GlyphClass: 2
Flags: HW
LayerCount: 2
Fore
SplineSet
996 -98 m 1
 0 -98 l 1
 0 164 l 1
 996 164 l 1
 996 -98 l 1
EndSplineSet
EndChar

StartChar: grave
Encoding: 96 96 67
Width: 922
GlyphClass: 2
Flags: HW
LayerCount: 2
Fore
SplineSet
444 1321 m 1
 86 1863 l 1
 398 2008 l 1
 601 1395 l 1
 444 1321 l 1
EndSplineSet
EndChar

StartChar: a
Encoding: 97 97 68
Width: 1257
GlyphClass: 2
Flags: HW
LayerCount: 2
Fore
SplineSet
430 390 m 128
 430 284.996553696 477.648780005 217 578 217 c 0
 651.333333333 217 713.666666667 248 765 310 c 1
 765 539 l 1
 767.648567026 541.648567026 672.988452437 547 669 547 c 0
 522.520161587 547 430 521.403364846 430 390 c 128
80 361.5 m 128
 80 637.879666288 316.455620236 729 612 729 c 0
 670.666666667 729 721.666666667 725 765 717 c 1
 765 794.333333333 761.666666667 841.666666667 755 859 c 0
 729.646976582 927.815349276 696.422951286 954 610 954 c 0
 476 954 351.666666667 927 237 873 c 1
 154 1082 l 1
 276.666666667 1158 432.666666667 1196 622 1196 c 0
 972.110831684 1196 1113 1020.95876254 1113 674 c 2
 1113 0 l 1
 842 0 l 1
 794 150 l 1
 731.357476493 41.9109398306 648.988799622 -26 487 -26 c 0
 233.655746932 -26 80 109.927402587 80 361.5 c 128
EndSplineSet
EndChar

StartChar: b
Encoding: 98 98 69
Width: 1343
GlyphClass: 2
Flags: HW
LayerCount: 2
Fore
SplineSet
790 -26 m 0
 622.666666667 -26 518.333333333 38 477 166 c 1
 401 0 l 1
 156 0 l 1
 156 1678 l 1
 507 1725 l 1
 507 1060 l 1
 587 1150.66666667 692.333333333 1196 823 1196 c 0
 915.666666667 1196 995 1170.33333333 1061 1119 c 0
 1194.33333333 1016.33333333 1261 838.666666667 1261 586 c 0
 1261 274 1165 80.6666666667 973 6 c 0
 919.666666667 -15.3333333333 858.666666667 -26 790 -26 c 0
709 200 m 0
 843.666666667 200 911 328.666666667 911 586 c 0
 911 736.666666667 897 839.333333333 869 894 c 1
 841 946 798 972 740 972 c 0
 663.333333333 972 585.666666667 933.333333333 507 856 c 1
 507 296 l 1
 565.666666667 232 633 200 709 200 c 0
EndSplineSet
EndChar

StartChar: c
Encoding: 99 99 70
Width: 1155
GlyphClass: 2
Flags: HW
LayerCount: 2
Fore
SplineSet
1044 75 m 1
 935.316716253 17.9858183621 820.442886507 -25 670 -25 c 128
 473.22655773 -25 345.439329194 31.3593416946 244.5 129 c 128
 146.655076447 223.647377032 80 381.860459857 80 571.5 c 128
 80 832.666848156 169.712295227 991.244649463 322 1097 c 0
 417.333333333 1163 524.666666667 1196 644 1196 c 0
 829.208769038 1196 920.836687873 1161.41937951 1045 1096 c 1
 980 871 l 1
 937.67473004 911.757667369 793.423141767 960 704 960 c 0
 482.6712453 960 432 825.010593852 432 586 c 0
 432 336 531.666666667 211 731 211 c 0
 805 211 883.333333333 237.666666667 966 291 c 0
 974.666666667 296.333333333 979 299.333333333 979 300 c 2
 1044 75 l 1
EndSplineSet
EndChar

StartChar: d
Encoding: 100 100 71
Width: 1345
GlyphClass: 2
Flags: HW
LayerCount: 2
Fore
SplineSet
868 166 m 1
 835.944339132 56.7193379489 687.290964984 -26 552 -26 c 0
 275.125878653 -26 139.691812366 151.987488274 99 388 c 128
 89 446 84 524.666666667 84 624 c 128
 84 836.404460612 164.572558761 1024.31457867 290 1119 c 128
 358 1170.33333333 438.333333333 1196 531 1196 c 0
 664.333333333 1196 767.333333333 1146 840 1046 c 1
 840 1678 l 1
 1191 1726 l 1
 1191 0 l 1
 944 0 l 1
 868 166 l 1
434 586 m 0
 434 335.333333333 501.333333333 210 636 210 c 0
 730.666666667 210 798.666666667 238.666666667 840 296 c 1
 840 856 l 1
 760.666666667 926.666666667 682.333333333 962 605 962 c 0
 502.333333333 962 446.333333333 875 437 701 c 0
 435 671.666666667 434 633.333333333 434 586 c 0
EndSplineSet
EndChar

StartChar: e
Encoding: 101 101 72
Width: 1229
GlyphClass: 2
Flags: HW
LayerCount: 2
Fore
SplineSet
854 676 m 1
 856 865.333333333 789 960 653 960 c 0
 607.666666667 960 568.666666667 946.666666667 536 920 c 0
 474 868.666666667 443 787.333333333 443 676 c 1
 854 676 l 1
1014 304 m 1
 1080 70 l 1
 956 6.66666666667 826.333333333 -25.3333333333 691 -26 c 0
 431 -26 251 68.6666666667 151 258 c 0
 103.666666667 349.333333333 81.3333333333 452 84 566 c 128
 89.1063829812 784.297872445 143.844273339 929.261880179 253 1037 c 0
 359.666666667 1143 495 1196 659 1196 c 0
 758.333333333 1196 844.333333333 1174 917 1130 c 0
 1065.66666667 1039.33333333 1139.33333333 884.666666667 1138 666 c 1
 1138 502 l 1
 444 502 l 1
 449.112439672 333.289490833 546.575957325 210.617548043 718 212 c 0
 832 212.666666667 930.666666667 243.333333333 1014 304 c 1
EndSplineSet
EndChar

StartChar: f
Encoding: 102 102 73
Width: 845
GlyphClass: 2
Flags: HW
LayerCount: 2
Fore
SplineSet
225 1160 m 1
 225 1481.36164557 329.607417524 1695 633 1695 c 0
 709 1695 785.333333333 1685.33333333 862 1666 c 1
 862 1411 l 1
 817.333333333 1427.66666667 767.666666667 1436 713 1436 c 0
 666.333333333 1436 631.833333333 1416.16666667 609.5 1376.5 c 128
 587.166666667 1336.83333333 576 1264.66666667 576 1160 c 1
 856 1160 l 1
 856 1015 l 1
 575 1015 l 1
 575 0 l 1
 225 0 l 1
 225 1015 l 1
 35 1015 l 1
 35 1160 l 1
 225 1160 l 1
EndSplineSet
EndChar

StartChar: g
Encoding: 103 103 74
Width: 1319
GlyphClass: 2
Flags: HW
LayerCount: 2
Fore
SplineSet
362 -166.5 m 128
 362 -227.752586555 376.522096441 -263.508498631 422 -281 c 0
 460.666666667 -296.333333333 514.666666667 -304 584 -304 c 128
 695.540865683 -304 772.550837428 -300.480107093 841.5 -273.5 c 128
 893.789215663 -253.039002567 926.904076244 -210.743460703 927.5 -144 c 128
 927.833333333 -106.666666667 921.666666667 -79 909 -61 c 0
 883 -23.6666666667 800.666666667 1.66666666667 662 15 c 2
 522 29 l 1
 501.759314473 29 431.042181664 -39.1742926473 418 -52.5 c 128
 393.133044464 -77.907541526 362 -120.656328314 362 -166.5 c 128
454 793.5 m 128
 454 712.922253409 491.445861571 637.277069215 556 605 c 1
 678 615 l 2
 714 617.666666667 747.333333333 639.333333333 778 680 c 0
 808 721.333333333 822.333333333 762.666666667 821 804 c 1
 821 913.333333333 761 968 641 968 c 0
 513.574867551 968 454 923.702698234 454 793.5 c 128
142 791 m 0
 142 1055.69908007 337.338085083 1196 608 1196 c 128
 750 1196 852 1176 914 1136 c 1
 1002.66666667 1174.66666667 1095.33333333 1194 1192 1194 c 2
 1293 1194 l 1
 1293 968 l 1
 1046 968 l 1
 1088.66666667 904 1110 853.666666667 1110 817 c 128
 1110 684.697363449 1061.89198118 592.26543744 989 526 c 1
 921.666666667 468 825.666666667 433 701 421 c 2
 398 392 l 1
 416 272 l 1
 684 252 l 2
 870.666666667 238 1008.66666667 199.833333333 1098 137.5 c 128
 1187.33333333 75.1666666667 1232 -19 1232 -145 c 0
 1232 -421 1018.66666667 -559 592 -559 c 0
 300.666666667 -559 135.333333333 -482.333333333 96 -329 c 0
 88 -297.666666667 84 -256 84 -204 c 128
 84 -71.0183067774 189.536474763 28.7557953349 291 80 c 1
 187 90 128.333333333 153 115 269 c 1
 108.113448423 365.411722073 115.528610698 391.511959303 149 438 c 0
 175 475.333333333 222.666666667 505.333333333 292 528 c 1
 373 550 l 1
 233.75551384 556.098298664 142 640.716486986 142 791 c 0
EndSplineSet
EndChar

StartChar: h
Encoding: 104 104 75
Width: 1378
GlyphClass: 2
Flags: HW
LayerCount: 2
Fore
SplineSet
720.5 962 m 128
 606.53683527 962 564.324830023 934.799045504 506 884 c 1
 506 0 l 1
 156 0 l 1
 156 1668 l 1
 506 1728 l 1
 506 1057 l 1
 517.635282535 1086.08820634 578.472544555 1130.99934383 608 1148 c 0
 663.333333333 1180 733.666666667 1196 819 1196 c 0
 1099.59466724 1196 1234 1015.55370431 1234 723 c 2
 1234 0 l 1
 884 0 l 1
 884 747 l 2
 884 866.581191783 827.662839809 962 720.5 962 c 128
EndSplineSet
EndChar

StartChar: i
Encoding: 105 105 76
Width: 700
GlyphClass: 2
Flags: HW
LayerCount: 2
Fore
SplineSet
349 1413 m 128
 239.234362367 1413 156 1496.93075694 156 1607 c 128
 156 1716.40776503 239.894734729 1801 349 1801 c 128
 458.032963421 1801 545 1716.40685165 545 1607 c 128
 545 1497.58816353 458.032519392 1413 349 1413 c 128
524 -3 m 1
 174 -3 l 1
 174 1159 l 1
 524 1159 l 1
 524 -3 l 1
EndSplineSet
EndChar

StartChar: j
Encoding: 106 106 77
Width: 666
GlyphClass: 2
Flags: HW
LayerCount: 2
Fore
SplineSet
-59 -113 m 1
 62.6161384278 -45.1756151075 150 33.1710732178 150 223 c 2
 150 1160 l 1
 501 1160 l 1
 501 203 l 2
 501 -33.8413883745 374.678119692 -190.295519437 223.5 -279.5 c 128
 169.833333333 -311.166666667 112.666666667 -334 52 -348 c 1
 -59 -113 l 1
324 1410 m 128
 213.878517482 1410 135 1494.02575061 135 1604.5 c 128
 135 1714.3429506 214.535560065 1798 324 1798 c 128
 433.463291319 1798 513 1714.33686932 513 1604.5 c 128
 513 1494.68593171 433.462392982 1410 324 1410 c 128
EndSplineSet
EndChar

StartChar: k
Encoding: 107 107 78
Width: 1302
GlyphClass: 2
Flags: HW
LayerCount: 2
Fore
SplineSet
507 409 m 1
 507 0 l 1
 156 0 l 1
 156 1678 l 1
 507 1727 l 1
 507 736 l 1
 947 1169 l 1
 1328 1169 l 1
 816 649 l 1
 1338 0 l 1
 943 0 l 1
 599 496 l 1
 507 409 l 1
EndSplineSet
EndChar

StartChar: l
Encoding: 108 108 79
Width: 662
GlyphClass: 2
Flags: HW
LayerCount: 2
Fore
SplineSet
507 1726 m 1
 507 0 l 1
 156 0 l 1
 156 1678 l 1
 507 1726 l 1
EndSplineSet
EndChar

StartChar: m
Encoding: 109 109 80
Width: 1970
GlyphClass: 2
Flags: HW
LayerCount: 2
Fore
SplineSet
818 792 m 2
 818 905.263737104 791.778581132 960 703 960 c 0
 676.333333333 960 655.666666667 956.666666667 641 950 c 0
 577.666666667 920.666666667 532.333333333 881 505 831 c 1
 505 0 l 1
 154 0 l 1
 154 1160 l 1
 402 1160 l 1
 480 982 l 1
 530.465589271 1116.16461538 624.374753988 1196 795 1196 c 0
 960.518410735 1196 1051.47219003 1140.7276078 1109 1022 c 1
 1186.82093145 1134.26626177 1279.89561339 1196 1464 1196 c 0
 1717.42840232 1196 1825 1017.67391071 1825 755 c 2
 1825 0 l 1
 1474 0 l 1
 1474 782 l 2
 1474 900.666666667 1434.33333333 960 1355 960 c 0
 1323.66666667 960 1294 952.5 1266 937.5 c 128
 1238 922.5 1205.66666667 897.333333333 1169 862 c 1
 1169 0 l 1
 818 0 l 1
 818 792 l 2
EndSplineSet
EndChar

StartChar: n
Encoding: 110 110 81
Width: 1350
GlyphClass: 2
Flags: HW
LayerCount: 2
Fore
SplineSet
794.5 1196 m 128
 1093.89196944 1196 1206 1027.73726177 1206 721 c 2
 1206 0 l 1
 855 0 l 1
 855 747 l 2
 855 881.677217217 825.702818288 957.619111977 708.5 961.5 c 128
 610.673778833 964.739278847 541.276092149 916.325922182 507 856 c 1
 507 0 l 1
 156 0 l 1
 156 1160 l 1
 422 1160 l 1
 489 1011 l 1
 549 1134.33333333 650.833333333 1196 794.5 1196 c 128
EndSplineSet
EndChar

StartChar: o
Encoding: 111 111 82
Width: 1298
GlyphClass: 2
Flags: HW
LayerCount: 2
Fore
SplineSet
430 584 m 128
 430 376.152512378 469.057324865 208 650 208 c 128
 830.878192641 208 870 376.364442455 870 584 c 128
 870 791.847487622 830.942675135 960 650 960 c 128
 469.121807359 960 430 791.635557545 430 584 c 128
649 1196 m 128
 1021.35414503 1196 1218 959.474342964 1218 582 c 0
 1218 205.456075182 1022.31778407 -26 650 -26 c 128
 277.739358752 -26 80 205.477086187 80 582 c 0
 80 959.516293471 276.616594661 1196 649 1196 c 128
EndSplineSet
EndChar

StartChar: p
Encoding: 112 112 83
Width: 1348
GlyphClass: 2
Flags: HW
LayerCount: 2
Fore
SplineSet
1266 568.5 m 128
 1266 219.661715022 1106.25962287 -26 780 -26 c 0
 669.333333333 -26 578.333333333 22.6666666667 507 120 c 1
 507 -406 l 1
 156 -406 l 1
 156 1160 l 1
 423 1160 l 1
 489 1009 l 1
 530.377644022 1131.75367727 635.933719436 1196 803 1196 c 128
 979.835306394 1196 1084.43220281 1135.00231212 1156 1027 c 0
 1229.33333333 916.333333333 1266 763.5 1266 568.5 c 128
914 605.5 m 128
 914 775.663555436 906.887921483 964 739 964 c 0
 653.666666667 964 576.333333333 928.333333333 507 857 c 1
 507 324 l 1
 602.333333333 246.666666667 681 208 743 208 c 0
 795 208 833.333333333 227.666666667 858 267 c 256
 913.188674483 355.003562013 914 471.67149545 914 605.5 c 128
EndSplineSet
EndChar

StartChar: q
Encoding: 113 113 84
Width: 1345
GlyphClass: 2
Flags: HW
LayerCount: 2
Fore
SplineSet
386 1166 m 0
 440.666666667 1186 500.666666667 1196 566 1196 c 128
 631.333333333 1196 689.333333333 1178 740 1142 c 1
 778 1118 812 1072 842 1004 c 1
 891 1160 l 1
 1191 1160 l 1
 1191 -406 l 1
 840 -406 l 1
 840 121 l 1
 757.333333333 23.6666666667 666.333333333 -25 567 -25 c 0
 423.629875332 -25 297.549935311 26.9580802145 233 107 c 0
 133.666666667 228.333333333 84 381 84 565 c 0
 84 890.333333333 184.666666667 1090.66666667 386 1166 c 0
840 831 m 1
 790.501519943 910.42779358 750.937811134 960 641 960 c 0
 464.661381721 960 433 776.61828314 433 600.5 c 128
 433 510.97800363 433.73035793 482.643337498 442.5 408.5 c 128
 454.61583808 306.066096233 494.249435283 209 604 209 c 0
 682.666666667 209 761.333333333 247.666666667 840 325 c 1
 840 831 l 1
EndSplineSet
EndChar

StartChar: r
Encoding: 114 114 85
Width: 853
GlyphClass: 2
Flags: HW
LayerCount: 2
Fore
SplineSet
497 976 m 1
 536.097908052 1077.99454275 596.571843556 1115.97155307 700 1147 c 256
 733.333333333 1157 782.666666667 1162 848 1162 c 1
 848 863 l 1
 814 875 776 881 734 881 c 0
 657.333333333 881 581.666666667 852.666666667 507 796 c 1
 507 0 l 1
 156 0 l 1
 156 1160 l 1
 457 1160 l 1
 497 976 l 1
EndSplineSet
EndChar

StartChar: s
Encoding: 115 115 86
Width: 1100
GlyphClass: 2
Flags: HW
LayerCount: 2
Fore
SplineSet
94 864 m 128
 94 1095.54782918 309.92800418 1196 562 1196 c 0
 640 1196 718.333333333 1185.83333333 797 1165.5 c 128
 875.666666667 1145.16666667 932.333333333 1127.66666667 967 1113 c 1
 991 1104 l 1
 925 882 l 1
 845.102925604 912.645453193 691.947847028 954.251150433 590 956.5 c 128
 520.946511869 958.023238709 456.360670435 949.855865967 427.5 920 c 128
 406.654171951 898.435350294 404.244649634 830.755350366 427 808 c 128
 439.666666667 795.333333333 464 782 500 768 c 2
 798 654 l 1
 930.531488416 605.615488356 1013 521.805054416 1013 348 c 0
 1013 190.666666667 944 83.3333333333 806 26 c 0
 723.333333333 -8 635 -25 541 -25 c 0
 359.666666667 -25 211.666666667 9.33333333333 97 78 c 1
 163 306 l 1
 213 283.333333333 273.333333333 262.333333333 344 243 c 0
 410 225.666666667 468.333333333 216.333333333 519 215 c 0
 634.089695729 212.354259868 687 231.843649734 687 339 c 0
 686.333333333 374.333333333 650.333333333 406 579 434 c 2
 422 496 l 2
 289.333333333 547.333333333 203.333333333 594.333333333 164 637 c 0
 117.333333333 687.666666667 94 763.333333333 94 864 c 128
EndSplineSet
EndChar

StartChar: t
Encoding: 116 116 87
Width: 985
GlyphClass: 2
Flags: HW
LayerCount: 2
Fore
SplineSet
584 418 m 2
 584 312.066392396 607.573830698 233.47615408 705 232 c 0
 749.096294233 232 811.587011823 253.801416077 839 270 c 0
 854.333333333 278 861.666666667 282.666666667 861 284 c 2
 943 73 l 1
 863.705859723 20.1372398153 733.509511828 -16 602 -16 c 0
 325.037900597 -16 235 170.121640223 235 453 c 2
 235 1016 l 1
 25 1016 l 1
 25 1160 l 1
 244 1160 l 1
 254 1593 l 1
 584 1677 l 1
 584 1160 l 1
 910 1160 l 1
 910 1016 l 1
 584 1016 l 1
 584 418 l 2
EndSplineSet
EndChar

StartChar: u
Encoding: 117 117 88
Width: 1331
GlyphClass: 2
Flags: HW
LayerCount: 2
Fore
SplineSet
571 -26 m 0
 270.927634153 -26 143 143.261934593 143 449 c 2
 143 1160 l 1
 489 1160 l 1
 489 423 l 1
 487.747122337 298.965111319 521.923204811 213.64225519 639 208 c 1
 710.333333333 213.333333333 772.333333333 245.333333333 825 304 c 1
 825 1160 l 1
 1176 1160 l 1
 1176 0 l 1
 929 0 l 1
 852 177 l 1
 823.333333333 103.666666667 792.666666667 54.6666666667 760 30 c 0
 712.666666667 -7.33333333333 649.666666667 -26 571 -26 c 0
EndSplineSet
EndChar

StartChar: v
Encoding: 118 118 89
Width: 1225
GlyphClass: 2
Flags: HW
LayerCount: 2
Fore
SplineSet
824 0 m 1
 400 0 l 1
 29 1160 l 1
 397 1160 l 1
 612 301 l 1
 825 1160 l 1
 1197 1160 l 1
 824 0 l 1
EndSplineSet
EndChar

StartChar: w
Encoding: 119 119 90
Width: 1706
GlyphClass: 2
Flags: HW
LayerCount: 2
Fore
SplineSet
1000 0 m 1
 850 652 l 1
 704 0 l 1
 355 0 l 1
 66 1160 l 1
 391 1160 l 1
 543 403 l 1
 701 1160 l 1
 1008 1160 l 1
 1165 405 l 1
 1324 1160 l 1
 1643 1160 l 1
 1353 0 l 1
 1000 0 l 1
EndSplineSet
EndChar

StartChar: x
Encoding: 120 120 91
Width: 1217
GlyphClass: 2
Flags: HW
LayerCount: 2
Fore
SplineSet
611 346 m 1
 424 0 l 1
 37 0 l 1
 433 584 l 1
 29 1160 l 1
 424 1160 l 1
 615 833 l 1
 801 1160 l 1
 1189 1160 l 1
 794 584 l 1
 1183 0 l 1
 801 0 l 1
 611 346 l 1
EndSplineSet
EndChar

StartChar: y
Encoding: 121 121 92
Width: 1236
GlyphClass: 2
Flags: HW
LayerCount: 2
Fore
SplineSet
505 43 m 1
 23 1160 l 1
 381 1160 l 1
 657 374 l 1
 849 1160 l 1
 1203 1160 l 1
 807 -32 l 1
 759 -180 691 -289.333333333 603 -360 c 128
 515 -430.666666667 397.666666667 -466.666666667 251 -468 c 1
 153 -231 l 1
 267.123101915 -222.678523819 351.050532765 -208.424481256 409 -152 c 128
 465.3706547 -97.1127835813 479.810119229 -48.9430648135 505 43 c 1
EndSplineSet
EndChar

StartChar: z
Encoding: 122 122 93
Width: 1046
GlyphClass: 2
Flags: HW
LayerCount: 2
Fore
SplineSet
572 897 m 1
 96 898 l 1
 96 1162 l 1
 948 1162 l 1
 948 931 l 1
 467 264 l 1
 959 264 l 1
 959 0 l 1
 84 0 l 1
 84 233 l 1
 572 897 l 1
EndSplineSet
EndChar

StartChar: braceleft
Encoding: 123 123 94
Width: 1313
GlyphClass: 2
Flags: HW
LayerCount: 2
Fore
SplineSet
776 -210 m 1
 472.422107479 -210 338 -44.6611024428 338 262 c 0
 338 336.666666667 334.166666667 394.833333333 326.5 436.5 c 128
 314.304924804 502.777582588 295.543299502 550 229 550 c 1
 229 739 l 1
 295.309948859 739 314.335908358 787.226752034 326 853.5 c 128
 333.333333333 895.166666667 337 953 337 1027 c 0
 337 1333.75381614 471.445233933 1499 776 1499 c 1
 776 1310 l 1
 724.800663554 1310 711.033510428 1299.57260593 693 1260.5 c 128
 683 1238.83333333 676.166666667 1206 672.5 1162 c 128
 668.833333333 1118 667 1058 667 982 c 0
 667 802.4966477 614.123134441 691.115405157 485 645 c 1
 607 599 668 486.333333333 668 307 c 0
 668 231 669.666666667 171 673 127 c 128
 679.665286383 39.0182197468 690.00531065 -21 776 -21 c 1
 776 -210 l 1
EndSplineSet
EndChar

StartChar: bar
Encoding: 124 124 95
Width: 674
GlyphClass: 2
Flags: HW
LayerCount: 2
Fore
SplineSet
233 -237 m 1
 233 1577 l 1
 541 1577 l 1
 543 -237 l 1
 233 -237 l 1
EndSplineSet
EndChar

StartChar: braceright
Encoding: 125 125 96
Width: 1313
GlyphClass: 2
Flags: HW
LayerCount: 2
Fore
SplineSet
520 645 m 1
 390.872150698 691.117089036 338 802.492528341 338 982 c 0
 338 1090.67976824 339.427392926 1185.60329981 312.5 1261 c 128
 299.707892492 1296.81790102 276.073730165 1310 229 1310 c 1
 229 1499 l 1
 532.639055797 1499 668 1333.69589965 668 1027 c 0
 668 917.666666667 676 842.333333333 692 801 c 128
 708 759.666666667 736 739 776 739 c 1
 776 550 l 1
 736 550 707.833333333 529.5 691.5 488.5 c 128
 675.166666667 447.5 667 372 667 262 c 0
 667 -44.6660913762 533.493884888 -210 229 -210 c 1
 229 -21 l 1
 303.447061112 -21 315.139499988 19.0269165918 326 86 c 128
 336.661130212 151.743636307 337 221.171112886 337 307 c 0
 337 486.333333333 398 599 520 645 c 1
EndSplineSet
EndChar

StartChar: asciitilde
Encoding: 126 126 97
Width: 1544
GlyphClass: 2
Flags: HW
LayerCount: 2
Fore
SplineSet
1079 635 m 1
 1079 463.101940092 1007.40797673 310 847 310 c 0
 777.680925395 310 709.686746126 337.155120977 663 364 c 2
 587 408 l 2
 552.993852096 428.78153483 506.547680105 461 463 461 c 0
 409.152568876 461 403 402.945313971 403 336 c 1
 195 336 l 1
 195 526.568247491 250.179984557 674 425 674 c 0
 492.019948427 674 556.934678973 649.839192616 600 624 c 2
 669 581 l 2
 703.623705755 558.966732701 751.47980202 531 801 531 c 0
 857.727825184 531 859 567.188100382 859 635 c 1
 1079 635 l 1
EndSplineSet
EndChar

StartChar: exclamdown
Encoding: 161 161 99
Width: 840
GlyphClass: 2
Flags: HW
LayerCount: 2
Fore
SplineSet
687 -1 m 1
 258 -1 l 1
 369 1065 l 1
 579 1065 l 1
 687 -1 l 1
485.5 1153 m 128
 375.3343429 1153 297 1237.206065 297 1347 c 128
 297 1456.66933122 375.854029569 1541 485.5 1541 c 128
 595.121898623 1541 675 1456.66623824 675 1347 c 128
 675 1237.32997039 595.120802553 1153 485.5 1153 c 128
EndSplineSet
EndChar

StartChar: cent
Encoding: 162 162 100
Width: 1282
GlyphClass: 2
Flags: HW
LayerCount: 2
Fore
SplineSet
700 -147 m 1
 701 1377 l 1
 863 1377 l 1
 864 -147 l 1
 700 -147 l 1
1122 86 m 1
 1010.88057062 27.7078403258 894.861697893 -14 721 -14 c 0
 548.687304623 -14 414.755446279 50.7594375861 322.5 140 c 128
 223.544870118 235.721302108 158 393.264546421 158 586 c 0
 158 826.203931766 257.788402076 988.241945886 400 1087 c 128
 484.612977623 1145.75901224 589.181350079 1186 722 1186 c 0
 907.208769038 1186 998.836687873 1151.41937951 1123 1086 c 1
 1058 861 l 1
 1015.67473004 901.757667369 871.423141767 950 782 950 c 0
 564.684271452 950 510 817.197138064 510 586 c 0
 510 343.333333333 609.666666667 222 809 222 c 0
 909.987986194 222 997.056845435 269.500892993 1057 311 c 1
 1122 86 l 1
EndSplineSet
EndChar

StartChar: sterling
Encoding: 163 163 101
Width: 1282
GlyphClass: 2
Flags: HW
LayerCount: 2
Fore
SplineSet
626 1061 m 0
 511.248206034 1061 444 1020.83927673 444 909 c 0
 444 854.333333333 462.333333333 801.333333333 499 750 c 1
 524 720 l 1
 929 720 l 1
 929 572 l 1
 542 572 l 1
 542 455.962435929 503.911814119 364.911814119 447.5 308.5 c 128
 422.828363351 283.828363351 416.983414067 276.491707033 396 266 c 1
 987 266 l 1
 987 0 l 1
 116 0 l 1
 113 260 l 1
 167.505272081 328.131590102 226.732667087 404.205418507 250 506 c 128
 255.333333333 529.333333333 258 551.666666667 258 573 c 1
 131 572 l 1
 131 715 l 1
 234 715 l 1
 234 713.666666667 230.166666667 716.666666667 222.5 724 c 128
 171.119705707 773.146368454 122 855.179978037 122 956 c 0
 122 1142.59887134 238.765943603 1248.48935738 386 1294.5 c 128
 444.666666667 1312.83333333 510.666666667 1322 584 1322 c 0
 771.689572375 1322 917.382149917 1270.36943895 1022 1189 c 1
 889 971 l 1
 831.842986751 1022.44131192 737.012427097 1061 626 1061 c 0
EndSplineSet
EndChar

StartChar: currency
Encoding: 164 164 102
Width: 1171
GlyphClass: 2
Flags: HW
LayerCount: 2
Fore
SplineSet
901 991 m 0
 901 1129.86149275 781.302191257 1249 644 1249 c 0
 535.130392924 1249 450.563317786 1182.1758618 406.5 1109.5 c 128
 380.833333333 1067.16666667 368 1022.33333333 368 975 c 0
 368 835.630611473 488.898997829 716 627 716 c 0
 734.766262318 716 819.67664493 783.104393502 863 855.5 c 128
 888.333333333 897.833333333 901 943 901 991 c 0
262 732 m 1
 215.333333333 803.333333333 192 881.666666667 192 967 c 0
 192 1057 218 1140.33333333 270 1217 c 1
 68 1419 l 1
 197 1549 l 1
 399 1347 l 1
 476.333333333 1399.66666667 560.666666667 1426 652 1426 c 0
 737.333333333 1426 815.333333333 1402.66666667 886 1356 c 1
 1079 1549 l 1
 1208 1419 l 1
 1013 1224 l 1
 1055.66666667 1156 1077 1081.66666667 1077 1001 c 0
 1077 909.666666667 1050.66666667 825.333333333 998 748 c 1
 1208 538 l 1
 1079 408 l 1
 868 619 l 1
 791.333333333 567 708 541 618 541 c 0
 536.666666667 541 462 562 394 604 c 1
 197 408 l 1
 68 538 l 1
 262 732 l 1
EndSplineSet
EndChar

StartChar: yen
Encoding: 165 165 103
Width: 1282
GlyphClass: 2
Flags: HW
LayerCount: 2
Fore
SplineSet
701 811 m 1
 1001 1577 l 1
 1385 1577 l 1
 997 771 l 1
 1199 771 l 1
 1199 651 l 1
 939 651 l 1
 877 522 l 1
 1199 522 l 1
 1199 402 l 1
 875 402 l 1
 875 0 l 1
 527 0 l 1
 527 402 l 1
 203 402 l 1
 203 522 l 1
 525 522 l 1
 464 651 l 1
 203 651 l 1
 203 771 l 1
 407 771 l 1
 23 1577 l 1
 401 1577 l 1
 701 811 l 1
EndSplineSet
EndChar

StartChar: brokenbar
Encoding: 166 166 104
Width: 674
GlyphClass: 2
Flags: HW
LayerCount: 2
Fore
SplineSet
233 -147 m 1
 234 599 l 1
 542 599 l 1
 543 -147 l 1
 233 -147 l 1
233 921 m 1
 234 1667 l 1
 542 1667 l 1
 543 921 l 1
 233 921 l 1
EndSplineSet
EndChar

StartChar: section
Encoding: 167 167 105
Width: 922
GlyphClass: 2
Flags: HW
LayerCount: 2
Fore
SplineSet
905 226 m 0
 905 -32.730748571 695.892134912 -110 438 -110 c 0
 305.449493928 -110 113.20444934 -41.9664070787 41 18 c 1
 12 43 l 1
 107 258 l 1
 117.911984 248.452014 123.523177812 243.607616641 139 232 c 2
 176 207 l 2
 239.179680844 164.880212771 322.193982258 128 426 128 c 0
 565.333333333 128 635 168.666666667 635 250 c 0
 635 285.333333333 624 312 602 330 c 128
 580 348 542 365.666666667 488 383 c 2
 328 437 l 2
 219.624760825 474.219779111 130.182183916 506.839131161 72 577 c 128
 28.3521255042 629.634201598 14 675.978805723 14 768 c 0
 14 895.523985126 99.2978068542 976.532731293 203 1005 c 1
 77 1049.66666667 14 1138.66666667 14 1272 c 0
 14 1387.79397615 77.925396639 1462.79634578 153 1510.5 c 128
 220.886605567 1553.63628062 326.038977594 1578 441 1578 c 0
 616.338081953 1578 768.009653637 1500.59227709 865 1423 c 1
 773 1220 l 1
 713.874222859 1266.85438943 555.185371464 1340 452 1340 c 0
 363.104803735 1340 271 1327.59293352 271 1244 c 0
 271 1202.99795709 299.997294917 1193.75637177 332.5 1178.5 c 128
 348.833333333 1170.83333333 369 1162.66666667 393 1154 c 2
 549 1098 l 2
 649.686124903 1061.48744921 737.631881788 1022.9673745 806 969.5 c 128
 870.808978874 918.816054983 903 853.683132607 903 743 c 0
 903 619.97175612 821.164921842 536.993852694 719 506 c 1
 826.754375411 460.411610403 905 373.616359079 905 226 c 0
269 750 m 0
 269 664.474676645 351.384130148 648 453 648 c 0
 579 648 642 681.333333333 642 748 c 0
 642 840.922548667 552.563265555 852 454 852 c 0
 358.313240574 852 269 841.410270955 269 750 c 0
EndSplineSet
EndChar

StartChar: dieresis
Encoding: 168 168 106
Width: 922
GlyphClass: 2
Flags: HW
LayerCount: 2
Fore
SplineSet
1039 1297 m 128
 929.234362367 1297 846 1380.93075694 846 1491 c 128
 846 1600.40776503 929.894734729 1685 1039 1685 c 128
 1148.03296342 1685 1235 1600.40685165 1235 1491 c 128
 1235 1381.58816353 1148.03251939 1297 1039 1297 c 128
369 1297 m 128
 259.234362367 1297 176 1380.93075694 176 1491 c 128
 176 1600.40776503 259.894734729 1685 369 1685 c 128
 478.032963421 1685 565 1600.40685165 565 1491 c 128
 565 1381.58816353 478.032519392 1297 369 1297 c 128
EndSplineSet
EndChar

StartChar: copyright
Encoding: 169 169 107
Width: 1843
GlyphClass: 2
Flags: HW
LayerCount: 2
Fore
SplineSet
1195 101 m 0
 1404.20366899 101 1576.61968905 190.78894053 1683.5 302.5 c 128
 1789.48271297 413.272892085 1874 583.043696744 1874 789 c 0
 1874 945.242787841 1822.77057762 1069.43141497 1759.5 1170.5 c 128
 1650.51165242 1344.59826951 1458.37369773 1468 1176 1468 c 0
 934.660911642 1468 762.285632294 1346.12614288 651.5 1207 c 128
 571.836338998 1106.95726293 512 956.852580963 512 783 c 0
 512 577.718902483 594.270331495 409.434825775 700 299.5 c 128
 808.206645398 186.989681206 982.011684738 101 1195 101 c 0
1181 1703 m 0
 1504.98366063 1703 1732.4778064 1575.17001067 1887 1405 c 128
 2033.582978 1243.57317613 2133.51321648 1052.62340039 2130 754 c 1
 2130 613.518653943 2093.28295205 496.788149392 2046.5 394.5 c 128
 1947.60385672 178.269449434 1769.88103888 20.6210048223 1539 -68 c 0
 1428.33333333 -110.666666667 1311 -132.333333333 1187 -133 c 0
 1007.82706702 -133 850.696506321 -83.1054424159 727.5 -17 c 128
 590.236033288 56.6538357969 469.337342497 172.214950745 387.5 302.5 c 128
 310.693212274 424.776406061 256 591.571075767 256 783 c 0
 256 1088.27280437 384.458268148 1299.99212639 545 1450.5 c 128
 655.193203923 1553.80612868 789.363998662 1630.25694288 952.5 1673 c 128
 1028.83333333 1693 1105 1703 1181 1703 c 0
1193 1089 m 0
 1020.13751188 1089 965 956.048023816 965 784 c 0
 965 599.3261537 1021.12826955 479 1201 479 c 0
 1271.66666667 479 1345.66666667 498 1423 536 c 2
 1497 573 l 1
 1497 354 l 1
 1469 340 l 2
 1375.66666667 293.333333333 1290.33333333 270 1213 270 c 0
 892.22850709 270 729 467.906697435 729 784 c 0
 729 997.400064028 808.601128507 1151.19504966 944.5 1233.5 c 128
 1015.5 1276.5 1099.66666667 1298 1197 1298 c 0
 1281.08712132 1298 1415.33886703 1262.87043401 1465 1232 c 2
 1489 1217 l 1
 1489 1007 l 1
 1415 1044 l 2
 1366.61517656 1068.19241172 1270.57921369 1089 1193 1089 c 0
EndSplineSet
EndChar

StartChar: ordfeminine
Encoding: 170 170 108
Width: 1038
GlyphClass: 2
Flags: HW
LayerCount: 2
Fore
SplineSet
421 941 m 128
 421 856.958251863 459.703712912 803 540 803 c 0
 598.666666667 803 648.333333333 827.666666667 689 877 c 1
 689 1060 l 1
 691.748005735 1062.74800573 615.607283614 1067 612 1067 c 0
 494.942177836 1067 421 1046.08121385 421 941 c 128
141 918 m 128
 141 1139.07935151 330.383044331 1212 567 1212 c 0
 613.666666667 1212 654.333333333 1209 689 1203 c 1
 689 1264.33333333 686.333333333 1302 681 1316 c 0
 660.461037308 1371.5760167 634.770269131 1392 565 1392 c 0
 457.666666667 1392 358.333333333 1370.33333333 267 1327 c 1
 200 1495 l 1
 298.666666667 1555.66666667 423.666666667 1586 575 1586 c 0
 854.908767896 1586 968 1445.29373323 968 1168 c 2
 968 629 l 1
 751 629 l 1
 712 749 l 1
 662.84333888 662.97584304 595.492219676 608 467 608 c 0
 263.926976345 608 141 716.61529298 141 918 c 128
EndSplineSet
EndChar

StartChar: guillemotleft
Encoding: 171 171 109
Width: 1190
GlyphClass: 2
Flags: HW
LayerCount: 2
Fore
SplineSet
947 862 m 1
 475 579 l 1
 947 285 l 1
 947 -51 l 1
 141 453 l 1
 141 696 l 1
 947 1200 l 1
 947 862 l 1
1751 862 m 1
 1279 579 l 1
 1751 285 l 1
 1751 -51 l 1
 945 453 l 1
 945 696 l 1
 1751 1200 l 1
 1751 862 l 1
EndSplineSet
EndChar

StartChar: logicalnot
Encoding: 172 172 110
Width: 1544
GlyphClass: 2
Flags: HW
LayerCount: 2
Fore
SplineSet
999 584 m 1
 195 584 l 1
 195 846 l 1
 1191 846 l 1
 1191 638.666666667 1191 431.333333333 1191 224 c 1
 999 224 l 1
 999 584 l 1
EndSplineSet
EndChar

StartChar: uni00AD
Encoding: 173 173 111
Width: 1016
GlyphClass: 2
Flags: HW
LayerCount: 2
Fore
SplineSet
905 574 m 1
 111 574 l 1
 111 836 l 1
 905 836 l 1
 905 574 l 1
EndSplineSet
EndChar

StartChar: registered
Encoding: 174 174 112
Width: 1843
GlyphClass: 2
Flags: HW
LayerCount: 2
Fore
SplineSet
906 1274 m 2
 991.883874739 1274 1048 1289.54002491 1048 1370 c 0
 1048 1401.33333333 1035.5 1422.5 1010.5 1433.5 c 128
 985.5 1444.5 934.333333333 1450 857 1450 c 1
 857 1274 l 1
 906 1274 l 2
1181 1375 m 0
 1181 1253.36354222 1122.43998684 1216.75741567 1016 1187 c 1
 1202 927 l 1
 1074 864 l 1
 891 1162 l 1
 852 1162 l 1
 852 890 l 1
 720 890 l 1
 720 1559 l 1
 856 1559 l 2
 1017.12437237 1559 1181 1533.92072533 1181 1375 c 0
256 1220 m 0
 256 1483.57367099 404.050220569 1677.83496394 584 1780 c 128
 687.333333333 1838.66666667 802.333333333 1868 929 1868 c 0
 1199.69468126 1868 1408.37949363 1724.30151621 1515 1547 c 128
 1574.33333333 1448.33333333 1604 1339.33333333 1604 1220 c 128
 1604 953.518744608 1452.67207705 759.836878875 1270.5 658.5 c 128
 1166.83333333 600.833333333 1053 572 929 572 c 0
 657.981418387 572 446.987512015 717.327652923 342.5 895.5 c 128
 284.833333333 993.833333333 256 1102 256 1220 c 0
928 708 m 0
 1080.66666667 708 1207 757.333333333 1307 856 c 128
 1407 954.666666667 1457 1075.33333333 1457 1218 c 0
 1457 1363.33333333 1406.83333333 1485 1306.5 1583 c 128
 1206.16666667 1681 1080 1730 928 1730 c 128
 776 1730 650.166666667 1680.66666667 550.5 1582 c 128
 450.833333333 1483.33333333 401 1361.83333333 401 1217.5 c 128
 401 1073.16666667 450.833333333 952.166666667 550.5 854.5 c 128
 650.166666667 756.833333333 776 708 928 708 c 0
EndSplineSet
EndChar

StartChar: macron
Encoding: 175 175 113
Width: 922
GlyphClass: 2
Flags: HW
LayerCount: 2
Fore
SplineSet
858 122 m 1
 176 122 l 1
 176 249 l 1
 858 249 l 1
 858 122 l 1
EndSplineSet
EndChar

StartChar: degree
Encoding: 176 176 114
Width: 922
GlyphClass: 2
Flags: HW
LayerCount: 2
Fore
SplineSet
525.5 1196 m 128
 427.712836845 1196 345 1118.83334453 345 1019.5 c 128
 345 920.541666062 427.291978083 843 525.5 843 c 128
 623.727947195 843 705 920.551804741 705 1019.5 c 128
 705 1118.45540316 623.730080803 1196 525.5 1196 c 128
526 1359 m 256
 669.171975404 1359 779.03845191 1286.79375539 839 1194.5 c 128
 873 1142.16666667 890 1084 890 1020 c 128
 890 879.048675663 802.905510669 773.722132033 705 723 c 128
 649.666666667 694.333333333 590 680 526 680 c 256
 382.352273161 680 271.888703319 752.364901705 211.5 845 c 128
 177.166666667 897.666666667 160 955.833333333 160 1019.5 c 128
 160 1160.16835421 248.415633127 1265.48948772 346.5 1316 c 128
 402.166666667 1344.66666667 462 1359 526 1359 c 256
EndSplineSet
EndChar

StartChar: plusminus
Encoding: 177 177 115
Width: 1544
GlyphClass: 2
Flags: HW
LayerCount: 2
Fore
SplineSet
1039 770 m 1
 760 770 l 1
 760 417 l 1
 472 417 l 1
 472 770 l 1
 195 770 l 1
 195 1039 l 1
 472 1039 l 1
 472 1389 l 1
 760 1389 l 1
 760 1039 l 1
 1039 1039 l 1
 1039 770 l 1
1014 -20 m 1
 220 -20 l 1
 220 242 l 1
 1014 242 l 1
 1014 -20 l 1
EndSplineSet
EndChar

StartChar: uni00B2
Encoding: 178 178 116
Width: 958
GlyphClass: 2
Flags: HW
LayerCount: 2
Fore
SplineSet
109 1473 m 1
 199.602528362 1518.30126418 332.864626329 1575 471 1575 c 0
 637.029887916 1575 769.43166002 1519.20077268 821 1402 c 128
 835.666666667 1368.66666667 843 1331 843 1289 c 0
 843 1226.33333333 827.666666667 1169.16666667 797 1117.5 c 128
 766.333333333 1065.83333333 712.333333333 1006.33333333 635 939 c 1
 520 836 l 1
 818 836 l 1
 818 622 l 1
 131 622 l 1
 131 796 l 1
 391 1016 l 1
 396.453105858 1018.72655293 439.937067615 1055.93706761 444 1060 c 2
 471 1083 l 2
 484.333333333 1094.33333333 493.666666667 1103.33333333 499 1110 c 2
 522 1136 l 1
 549.369300767 1163.36930077 576 1199.8623516 576 1251 c 0
 576 1331.82568583 536.201018131 1366 453 1366 c 0
 394.430723362 1366 329.940797653 1345.20305359 283 1326 c 2
 219 1300 l 2
 205.666666667 1294 193.666666667 1288.33333333 183 1283 c 1
 182 1282 l 1
 109 1473 l 1
EndSplineSet
EndChar

StartChar: uni00B3
Encoding: 179 179 117
Width: 929
GlyphClass: 2
Flags: HW
LayerCount: 2
Fore
SplineSet
322 1213 m 1
 425.178832991 1213 541 1238.66273985 541 1340 c 0
 541 1405.83468074 478.57387574 1429 409 1429 c 0
 321.413799444 1429 243.871918162 1399.94510778 181 1373 c 1
 90 1556 l 1
 165.971330613 1599.41218892 267.753483341 1639 389 1639 c 0
 621.217681851 1639 785.592235901 1563.32019463 789 1335 c 1
 791.89414995 1226.46937688 718.725647786 1136.77415547 628 1115 c 1
 728.425029878 1090.50609027 818 988.657708157 818 868 c 256
 818 631.269921432 641.104489398 536 404 536 c 0
 311.700824259 536 225.021837611 550.616049023 157.5 571 c 128
 131.461527993 578.860670794 122.272232309 583.169043296 104 591 c 1
 171 792 l 1
 172 792 l 1
 220.651931128 771.966851889 321.092423615 743 396 743 c 0
 495.022736813 743 559 770.726847127 559 866 c 0
 559 938.51932141 495.512274921 982.972593657 436 1001.5 c 128
 400.666666667 1012.5 362.666666667 1017.33333333 322 1016 c 1
 322 1213 l 1
EndSplineSet
EndChar

StartChar: acute
Encoding: 180 180 118
Width: 922
GlyphClass: 2
Flags: HW
LayerCount: 2
Fore
SplineSet
485 1321 m 1
 328 1395 l 1
 531 2008 l 1
 843 1863 l 1
 485 1321 l 1
EndSplineSet
EndChar

StartChar: uni00B5
Encoding: 181 181 119
Width: 1386
GlyphClass: 2
Flags: HW
LayerCount: 2
Fore
SplineSet
655 -15 m 0
 620.599847675 -15 567.654449585 -2.13952146465 543.5 7 c 128
 531.166666667 11.6666666667 524.666666667 14.6666666667 524 16 c 2
 524 -488 l 1
 174 -428 l 1
 174 1161 l 1
 524 1161 l 1
 524 277 l 1
 570.397031007 253.801484496 625.55804903 229.918334288 686.5 221 c 128
 781.852344053 207.045998431 865.772552178 246.497600075 909 296 c 1
 909 1161 l 1
 1261 1161 l 1
 1261 1 l 1
 1013 1 l 1
 935 168 l 1
 903.81149388 57.1075337964 799.685225633 -15 655 -15 c 0
EndSplineSet
EndChar

StartChar: paragraph
Encoding: 182 182 120
Width: 1171
GlyphClass: 2
Flags: HW
LayerCount: 2
Fore
SplineSet
117 1155 m 0
 117 1490.09806471 385.270968774 1577 720 1577 c 2
 825 1577 l 1
 1326 1578 l 1
 1326 0 l 1
 1070 0 l 1
 1070 1428 l 1
 935 1428 l 1
 935 0 l 1
 676 0 l 1
 676 711 l 1
 349.368606231 711 117 827.559654492 117 1155 c 0
EndSplineSet
EndChar

StartChar: periodcentered
Encoding: 183 183 121
Width: 700
GlyphClass: 2
Flags: HW
LayerCount: 2
Fore
SplineSet
398.5 494 m 128
 282.893915037 494 188 589.164510637 188 705 c 128
 188 820.302338319 283.027896193 916 398.5 916 c 128
 513.949712171 916 610 820.299586748 610 705 c 128
 610 589.698291996 513.945087941 494 398.5 494 c 128
EndSplineSet
EndChar

StartChar: cedilla
Encoding: 184 184 122
Width: 922
GlyphClass: 2
Flags: HW
LayerCount: 2
Fore
SplineSet
450 -665 m 0
 372.173444229 -665 298.34699019 -646.626851537 236 -611 c 1
 236 -474 l 1
 280.944061887 -496.472030943 339.884040965 -517 408 -517 c 0
 501.577805094 -517 546 -495.729692834 546 -401 c 0
 546 -293 459.333333333 -239 286 -239 c 1
 306 23 l 1
 426 23 l 1
 406 -151 l 1
 518.072186395 -151 611.189506763 -191.111080748 674 -244.5 c 128
 711.471352422 -276.350649559 738.596830096 -329.051014531 740 -395 c 1
 740 -575.811203541 633.847260986 -665 450 -665 c 0
EndSplineSet
EndChar

StartChar: uni00B9
Encoding: 185 185 123
Width: 912
GlyphClass: 2
Flags: HW
LayerCount: 2
Fore
SplineSet
344 702 m 1
 344 1416 l 1
 219 1362 l 1
 144 1552 l 1
 358 1639 l 1
 622 1637 l 1
 622 702 l 1
 344 702 l 1
EndSplineSet
EndChar

StartChar: ordmasculine
Encoding: 186 186 124
Width: 1038
GlyphClass: 2
Flags: HW
LayerCount: 2
Fore
SplineSet
384 1160 m 128
 384 993.668856375 414.970489088 859 560 859 c 128
 704.979040728 859 736 993.836992409 736 1160 c 128
 736 1326.33114362 705.029510912 1461 560 1461 c 128
 415.020959272 1461 384 1326.16300759 384 1160 c 128
559.5 1650 m 128
 857.08477717 1650 1014 1460.35103324 1014 1159 c 256
 1014 857.208826849 858.081793331 672 560 672 c 128
 261.970509469 672 104 857.223811297 104 1159 c 256
 104 1460.39052551 261.90851004 1650 559.5 1650 c 128
EndSplineSet
EndChar

StartChar: guillemotright
Encoding: 187 187 125
Width: 1190
GlyphClass: 2
Flags: HW
LayerCount: 2
Fore
SplineSet
978 862 m 1
 978 1200 l 1
 1784 696 l 1
 1784 453 l 1
 978 -51 l 1
 978 285 l 1
 1459 579 l 1
 978 862 l 1
174 862 m 1
 174 1200 l 1
 980 696 l 1
 980 453 l 1
 174 -51 l 1
 174 285 l 1
 655 579 l 1
 174 862 l 1
EndSplineSet
EndChar

StartChar: onequarter
Encoding: 188 188 126
Width: 1909
GlyphClass: 2
Flags: HW
LayerCount: 2
Fore
SplineSet
479 -29 m 1
 1185 1541 l 1
 1411 1458 l 1
 698 -107 l 1
 479 -29 l 1
1558 1023 m 1
 1765 970 l 1
 1765 303 l 1
 1904 303 l 1
 1904 96 l 1
 1765 96 l 1
 1765 -125 l 1
 1521 -124 l 1
 1521 96 l 1
 1072 96 l 1
 1039 257 l 1
 1558 1023 l 1
1345 301 m 1
 1521 301 l 1
 1521 597 l 1
 1345 301 l 1
290 411 m 1
 290 1125 l 1
 165 1071 l 1
 90 1261 l 1
 376 1373 l 1
 554 1333 l 1
 554 411 l 1
 290 411 l 1
EndSplineSet
EndChar

StartChar: onehalf
Encoding: 189 189 127
Width: 1909
GlyphClass: 2
Flags: HW
LayerCount: 2
Fore
SplineSet
479 -29 m 1
 1185 1541 l 1
 1411 1458 l 1
 698 -107 l 1
 479 -29 l 1
290 411 m 1
 290 1125 l 1
 165 1071 l 1
 90 1261 l 1
 376 1373 l 1
 554 1333 l 1
 554 411 l 1
 290 411 l 1
1760 725 m 0
 1760 805.811121526 1719.15288211 840 1636 840 c 0
 1567.51924004 840 1457.12311776 799.967851658 1409 777 c 2
 1365 756 l 1
 1293 947 l 1
 1311.55076398 954.950327419 1328.40406816 964.40180807 1350 974 c 2
 1389 990 l 1
 1435 1006 l 1
 1497.53962333 1029.45235875 1570.90867783 1049 1654 1049 c 0
 1857.15590997 1049 2026 967.202962983 2026 763 c 0
 2026 700.333333333 2010.66666667 643.333333333 1980 592 c 128
 1949.33333333 540.666666667 1895.66666667 481 1819 413 c 2
 1704 310 l 1
 2002 310 l 1
 2002 96 l 1
 1315 96 l 1
 1315 270 l 1
 1410.00809709 349.991902914 1504.94056405 430.059435946 1600 510 c 0
 1613.33333333 520.666666667 1622.66666667 528.666666667 1628 534 c 2
 1654 558 l 2
 1666.66666667 568.666666667 1676 577.333333333 1682 584 c 2
 1706 610 l 2
 1716 620.666666667 1723.33333333 630 1728 638 c 2
 1744 666 l 2
 1754.02163241 682.702720676 1760 701.36856822 1760 725 c 0
EndSplineSet
EndChar

StartChar: threequarters
Encoding: 190 190 128
Width: 1909
GlyphClass: 2
Flags: HW
LayerCount: 2
Fore
SplineSet
1702 1023 m 1
 1909 970 l 1
 1909 303 l 1
 2048 303 l 1
 2048 96 l 1
 1909 96 l 1
 1909 -125 l 1
 1685 -124 l 1
 1685 96 l 1
 1216 96 l 1
 1183 257 l 1
 1702 1023 l 1
1479 301 m 1
 1685 301 l 1
 1685 607 l 1
 1479 301 l 1
623 -29 m 1
 1328 1541 l 1
 1555 1458 l 1
 842 -107 l 1
 623 -29 l 1
400 615 m 0
 499.85313115 615 563 642.288771372 563 738 c 0
 563 810.939122987 500.324860552 854.990231227 440.5 874 c 128
 404.833333333 885.333333333 366.666666667 890.333333333 326 889 c 1
 326 1086 l 1
 406.210128521 1086 469.962555813 1099.88908912 512.5 1138.5 c 128
 534.166666667 1158.16666667 545 1183 545 1213 c 256
 545 1278.83468074 482.57387574 1302 413 1302 c 0
 355.007259094 1302 261.520360831 1276.60814433 220 1260 c 2
 185 1246 l 1
 94 1429 l 1
 170.027684091 1472.44439091 270.919489396 1511 393 1511 c 0
 626.214591072 1511 788.514416265 1435.65172502 794 1208 c 1
 794 1099.87293873 721.889629462 1010.07976973 632 987 c 1
 731.475471004 962.438155308 822 861.123204449 822 741 c 256
 822 504.881259055 644.753234225 409 408 409 c 0
 318.058622917 409 236.490122582 420.687329711 169 442 c 2
 136 452 l 2
 123.932327598 456.309883001 116.177552292 459.411223854 109 463 c 1
 175 665 l 1
 219.622133813 644.405169009 328.645669721 615 400 615 c 0
EndSplineSet
EndChar

StartChar: questiondown
Encoding: 191 191 129
Width: 1069
GlyphClass: 2
Flags: HW
LayerCount: 2
Fore
SplineSet
1133 -13 m 1
 1009.4583967 -75.8939071335 867.358515693 -105 685 -105 c 0
 451.393213566 -105 256.528514718 -46.6749007556 171 103 c 128
 141.666666667 154.333333333 127 215 127 285 c 0
 127 454.70085249 209.247317236 563.518571912 309.5 640 c 128
 384.18790441 696.978401302 495.338593344 744.501510854 605 776 c 1
 605 1030 l 1
 926 1030 l 1
 926 621 l 1
 907.333333333 613.666666667 883.333333333 605.333333333 854 596 c 2
 776 570 l 1
 660.440472002 532.613093883 522.984165836 485.523264739 477.5 380 c 128
 469.166666667 360.666666667 465 340 465 318 c 0
 465 181.778073311 578.590087472 168 715 168 c 0
 792.371016382 168 932.551696577 202.646168524 994.5 221.5 c 128
 1032.83333333 233.166666667 1052 239.333333333 1052 240 c 2
 1133 -13 l 1
749 1519 m 128
 857.541986875 1519 938 1433.73072787 938 1325 c 128
 938 1215.59776274 858.202121248 1131 749 1131 c 128
 639.797887679 1131 560 1215.60279213 560 1325 c 128
 560 1434.40223726 639.797878752 1519 749 1519 c 128
EndSplineSet
EndChar

StartChar: AE
Encoding: 198 198 136
Width: 1999
GlyphClass: 2
Flags: HW
LayerCount: 2
Fore
SplineSet
1852 1577 m 1
 1852 1374 l 1
 1183 1374 l 1
 1183 939 l 1
 1762 939 l 1
 1762 742 l 1
 1183 742 l 1
 1183 223 l 1
 1862 223 l 1
 1862 0 l 1
 822 0 l 1
 822 350 l 1
 481 350 l 1
 359 0 l 1
 0 0 l 1
 620 1577 l 1
 1852 1577 l 1
822 520 m 1
 822 1343 l 1
 528 520 l 1
 822 520 l 1
EndSplineSet
EndChar

StartChar: Eth
Encoding: 208 208 146
Width: 1544
GlyphClass: 2
Flags: HW
LayerCount: 2
Fore
SplineSet
1498 782 m 0
 1498 260.022331123 1223.54660615 0 690 0 c 2
 190 0 l 1
 190 684 l 1
 31 684 l 1
 31 916 l 1
 190 916 l 1
 190 1578 l 1
 690 1578 l 2
 1228.66666667 1578 1498 1312.66666667 1498 782 c 0
1128 784 m 0
 1128 922.423757556 1120.79301607 1046.2134806 1073.5 1137.5 c 128
 1003.13598891 1273.31890512 861.192573982 1326 651 1326 c 2
 559 1326 l 1
 559 916 l 1
 822 916 l 1
 822 684 l 1
 559 684 l 1
 559 254 l 1
 651 254 l 2
 904.525366295 254 1059.58235298 329.191176651 1106 534.5 c 128
 1124.23125764 615.138254932 1128 683.76615803 1128 784 c 0
EndSplineSet
EndChar

StartChar: multiply
Encoding: 215 215 153
Width: 1544
GlyphClass: 2
Flags: HW
LayerCount: 2
Fore
SplineSet
229 813 m 1
 411 1012 l 1
 701 738 l 1
 991 1012 l 1
 1173 813 l 1
 897 553 l 1
 1173 292 l 1
 991 93 l 1
 701 367 l 1
 411 93 l 1
 229 292 l 1
 505 553 l 1
 229 813 l 1
EndSplineSet
EndChar

StartChar: Oslash
Encoding: 216 216 154
Width: 1567
GlyphClass: 2
Flags: HW
LayerCount: 2
Fore
SplineSet
751 1339 m 128
 466.545006964 1339 410 1075.55763389 410 789 c 128
 410 596.155965642 437.297598472 432.486135116 526 329 c 1
 919 1295 l 1
 873.386608133 1321.06479535 818.14916452 1339 751 1339 c 128
751 238 m 0
 1035.41439738 238 1092 502.521647824 1092 789 c 128
 1092 945.98946897 1075.5880093 1074.8239814 1023 1180 c 1
 649 252 l 1
 679.666666667 242.666666667 713.666666667 238 751 238 c 0
1461 789 m 0
 1461 291.176916578 1247.94232433 -28 751 -28 c 0
 676.333333333 -28 607.333333333 -20.6666666667 544 -6 c 1
 479 -168 l 1
 343 -123 l 1
 409 40 l 1
 158.169454675 158.037903682 41 421.122032522 41 789 c 0
 41 1287.34690501 260.55697414 1605 751 1605 c 0
 855 1605 947.333333333 1591.33333333 1028 1564 c 1
 1099 1739 l 1
 1230 1694 l 1
 1154 1505 l 1
 1360.95325863 1376.35337977 1461 1122.65873332 1461 789 c 0
EndSplineSet
EndChar

StartChar: Thorn
Encoding: 222 222 160
Width: 1360
GlyphClass: 2
Flags: HW
LayerCount: 2
Fore
SplineSet
1281 746 m 0
 1281 407.927520546 1114.15741079 165 794 165 c 0
 673.333333333 165 582.333333333 207 521 291 c 1
 521 -219 l 1
 170 -219 l 1
 170 1578 l 1
 502 1578 l 1
 503 1201 l 1
 556.648599995 1292.79871555 668.273227856 1359 806 1359 c 0
 1065.64336554 1359 1197.49413613 1201.62589276 1252 993 c 128
 1271.33333333 919 1281 836.666666667 1281 746 c 0
928 770 m 0
 928 1005.33333333 860.666666667 1123 726 1123 c 0
 625.904032752 1123 567.95948946 1095.00120639 521 1046 c 1
 521 495 l 1
 586.333333333 431 665 399 757 399 c 0
 922.438214884 399 928 605.432144363 928 770 c 0
EndSplineSet
EndChar

StartChar: germandbls
Encoding: 223 223 161
Width: 1325
GlyphClass: 2
Flags: HW
LayerCount: 2
Fore
SplineSet
156 980 m 2
 156 1387.64142581 360.542858579 1579 781 1579 c 0
 1083.54844468 1579 1312.5258696 1485.84478238 1355 1231 c 128
 1359 1207 1361 1182.33333333 1361 1157 c 0
 1361 945.09678615 1219.41161404 842.90480623 1026 819 c 1
 1355.33333333 785.666666667 1520 631 1520 355 c 2
 1520 352 l 2
 1520 188.854854507 1439.36924887 67.7365173226 1341.5 -7 c 128
 1177.34371276 -132.355710257 933.878166007 -197 647 -197 c 1
 646 84 l 1
 781.917815857 94.2794986783 903.622627954 111.724030555 998.5 150.5 c 128
 1088.39015564 187.237715785 1154 244.436929095 1154 364 c 0
 1154 580.666666667 995 689 677 689 c 1
 677 689 677 689 675 907 c 1
 732 907 l 2
 914.159360927 907 1038 959.21549383 1038 1135 c 0
 1038 1293.73935965 945.465506724 1334 781 1334 c 0
 682.333333333 1334 615.333333333 1307.33333333 580 1254 c 128
 544.666666667 1200.66666667 527 1109.33333333 527 980 c 2
 527 0 l 1
 156 0 l 1
 156 980 l 2
EndSplineSet
EndChar

StartChar: ae
Encoding: 230 230 168
Width: 1931
GlyphClass: 2
Flags: HW
LayerCount: 2
Fore
SplineSet
655 547 m 0
 505.793546651 547 408 520.47283032 408 385 c 0
 408 284.214341779 465.652007681 217 564 217 c 0
 652.875560339 217 712.129865625 262.637171289 765 310 c 1
 765 539 l 1
 723.666666667 544.333333333 687 547 655 547 c 0
1298 1186 m 0
 1599.24831744 1186 1767 970.020737302 1767 666 c 2
 1767 502 l 1
 1093 502 l 1
 1093 499 l 1
 1098.24377592 339.064834312 1191.64433827 220.655645027 1357 222 c 0
 1464.33333333 222.666666667 1559.66666667 253.333333333 1643 314 c 1
 1709 80 l 1
 1585 16.6666666667 1449 -15.3333333333 1301 -16 c 0
 1088.14039561 -17.4096662543 980.923004849 55.2335160547 906 200 c 1
 826.577100789 65.4223096709 686.768537337 -18 479 -18 c 0
 223.911660239 -18 80 118.057910122 80 373 c 0
 80 661.275683974 323.504602428 729 612 729 c 0
 671.333333333 729 722.333333333 725 765 717 c 1
 765 803.40489506 759.404484575 884.506644777 703.5 915 c 128
 679.246063032 928.229420165 645.329346602 936 606 936 c 0
 492.518907821 936 385.629027047 908.608293442 296 883 c 2
 231 864 l 1
 205 855 l 1
 157 1073 l 1
 256.809783646 1136.62873707 455.454228162 1186 618 1186 c 0
 784.666666667 1186 898.333333333 1136.66666667 959 1038 c 1
 1022.66891294 1132.87916439 1144.81557974 1186 1298 1186 c 0
1292 950 m 0
 1155.60920595 950 1100.76939567 831.489927898 1093 702 c 1
 1093 676 l 1
 1483 676 l 1
 1484.20792366 826.99045716 1435.97570326 950 1292 950 c 0
EndSplineSet
EndChar

StartChar: eth
Encoding: 240 240 178
Width: 1266
GlyphClass: 2
Flags: HW
LayerCount: 2
Fore
SplineSet
430 586 m 0
 430 446.172503254 452.026561837 312.582248245 532.5 251.5 c 128
 560.166666667 230.5 593.333333333 220 632 220 c 0
 791.728007146 220 836 394.455967501 836 555 c 2
 836 856 l 1
 770.666666667 920 692.333333333 952 601 952 c 0
 436.361941133 952 430 751.273162264 430 586 c 0
1186 612 m 0
 1186 204.794672726 989.938954779 -16 587 -16 c 0
 312.135941573 -16 168.059225005 138.128349981 109 354 c 128
 89.6666666667 424.666666667 80 502 80 586 c 0
 80 822.394408893 151.061142681 1007.13439202 286 1109 c 128
 354 1160.33333333 434.333333333 1186 527 1186 c 0
 665 1186 768 1139.33333333 836 1046 c 1
 821.688837246 1134.25217031 725.547813914 1266.86567446 661 1338 c 1
 427 1263 l 1
 385 1413 l 1
 537 1462 l 1
 483.666666667 1509.33333333 432.333333333 1547 383 1575 c 1
 533 1752 l 1
 639.437759318 1685.83598745 695.3284306 1648.67094793 790 1566 c 1
 809 1549 l 1
 1103 1644 l 1
 1145 1494 l 1
 929 1424 l 1
 996.234864546 1338.83583824 1068.87412204 1219.47676948 1109 1105 c 128
 1155.39706639 972.63189882 1186 794.236118832 1186 612 c 0
EndSplineSet
EndChar

StartChar: divide
Encoding: 247 247 185
Width: 1544
GlyphClass: 2
Flags: HW
LayerCount: 2
Fore
SplineSet
1199 593 m 1
 195 593 l 1
 195 855 l 1
 1199 855 l 1
 1199 593 l 1
702 112 m 128
 592.137762233 112 513 195.936312138 513 306 c 128
 513 415.402237255 592.797878752 500 702 500 c 128
 811.202112321 500 891 415.397207869 891 306 c 128
 891 196.597762745 811.202121248 112 702 112 c 128
699 950 m 128
 589.137762233 950 510 1033.93631214 510 1144 c 128
 510 1253.40223726 589.797878752 1338 699 1338 c 128
 808.202112321 1338 888 1253.39720787 888 1144 c 128
 888 1034.59776274 808.202121248 950 699 950 c 128
EndSplineSet
EndChar

StartChar: oslash
Encoding: 248 248 186
Width: 1266
GlyphClass: 2
Flags: HW
LayerCount: 2
Fore
SplineSet
639 188 m 0
 833.120778572 188 917 368.19277014 917 584 c 0
 917 681.230192268 901.393944823 763.313119549 872 827 c 128
 855.946734869 861.782074451 833.858116759 893.57094162 803 909 c 1
 566 195 l 1
 584 190.333333333 608.333333333 188 639 188 c 0
1208 582 m 0
 1208 213.701026284 1006.30902319 -16 639 -16 c 0
 589.666666667 -16 543 -12 499 -4 c 1
 441 -177 l 1
 335 -141 l 1
 392 26 l 1
 187.743950231 106.66162475 70 300.476110911 70 582 c 0
 70 951.296223064 271.577961063 1186 639 1186 c 0
 685 1186 729 1182.33333333 771 1175 c 1
 835 1364 l 1
 939 1328 l 1
 878 1146 l 1
 1087.91836923 1066.46571104 1208 868.322349614 1208 582 c 0
377 690 m 1
 377 688.333333333 377 686.666666667 377 685 c 2
 371 605 l 1
 371 584 l 2
 371 472.135822497 394.985747376 376.231961512 433.5 308.5 c 128
 443.166666667 291.5 451.166666667 279.333333333 457.5 272 c 128
 463.833333333 264.666666667 467.333333333 261 468 261 c 2
 708 973 l 1
 688.666666667 977.666666667 665.666666667 980 639 980 c 0
 532.333333333 980 456.666666667 927.666666667 412 823 c 1
 411 822 l 2
 411 821.333333333 411 820.666666667 411 820 c 2
 410 820 l 2
 410 819.333333333 410 818.666666667 410 818 c 2
 409 817 l 1
 409 816 l 1
 408 815 l 2
 408 814.333333333 408 813.666666667 408 813 c 2
 407 812 l 2
 407 811.333333333 407 810.666666667 407 810 c 2
 406 809 l 1
 406 808 l 1
 405 807 l 2
 405 806.333333333 405 805.666666667 405 805 c 2
 404 805 l 2
 404 804 404 803 404 802 c 2
 403 801 l 1
 403 800 l 1
 402 799 l 2
 402 798 402 797 402 796 c 1
 401 796 l 2
 401 795.333333333 401 794.666666667 401 794 c 2
 400 793 l 2
 400 792.333333333 400 791.666666667 400 791 c 2
 399 790 l 2
 399 789.333333333 399 788.666666667 399 788 c 2
 398 787 l 2
 398 786 398 785 398 784 c 2
 397 783 l 2
 397 782.333333333 397 781.666666667 397 781 c 2
 396 780 l 2
 396 779.333333333 396 778.666666667 396 778 c 2
 395 777 l 2
 395 776 395 775 395 774 c 2
 394 773 l 2
 394 772.333333333 394 771.666666667 394 771 c 2
 393 770 l 2
 393 769.333333333 393 768.666666667 393 768 c 2
 392 767 l 2
 392 765.666666667 392 764.333333333 392 763 c 2
 391 762 l 2
 391 761.333333333 391 760.666666667 391 760 c 2
 390 759 l 2
 390 758 390 757 390 756 c 2
 389 755 l 2
 389 753.666666667 389 752.333333333 389 751 c 2
 388 750 l 2
 388 749.333333333 388 748.666666667 388 748 c 2
 387 747 l 2
 387 745.666666667 387 744.333333333 387 743 c 2
 386 742 l 2
 386 740.666666667 386 739.333333333 386 738 c 2
 385 737 l 2
 385 736 385 735 385 734 c 2
 384 733 l 1
 384 731.333333333 384 729.666666667 384 728 c 1
 383 728 l 1
 383 726.333333333 383 724.666666667 383 723 c 1
 382 722 l 2
 382 720.666666667 382 719.333333333 382 718 c 2
 381 717 l 1
 381 715 381 713 381 711 c 1
 380 711 l 1
 380 709 380 707 380 705 c 1
 379 704 l 1
 379 702 379 700 379 698 c 1
 378 697 l 1
 378 694.666666667 378 692.333333333 378 690 c 1
 377 690 l 1
EndSplineSet
EndChar

StartChar: thorn
Encoding: 254 254 192
Width: 1319
GlyphClass: 2
Flags: HW
LayerCount: 2
Fore
SplineSet
1267 565 m 0
 1267 226.927520546 1100.15741079 -16 780 -16 c 0
 659.333333333 -16 568.333333333 26 507 110 c 1
 507 -406 l 1
 156 -406 l 1
 156 1578 l 1
 503 1578 l 1
 503 1041 l 1
 552.1696107 1126.73162891 660.651009604 1178 792 1178 c 0
 1051.64336554 1178 1183.49413613 1020.62589276 1238 812 c 128
 1257.33333333 738 1267 655.666666667 1267 565 c 0
914 589 m 0
 914 824.333333333 846.666666667 942 712 942 c 0
 611.904032752 942 553.95948946 914.001206393 507 865 c 1
 507 314 l 1
 572.333333333 250 651 218 743 218 c 0
 908.438214884 218 914 424.432144363 914 589 c 0
EndSplineSet
EndChar

StartChar: dotlessi
Encoding: 305 305 194
Width: 631
GlyphClass: 2
Flags: HW
LayerCount: 2
Fore
SplineSet
506 -3 m 1
 156 -3 l 1
 156 1157 l 1
 506 1157 l 1
 506 -3 l 1
EndSplineSet
EndChar

StartChar: Lslash
Encoding: 321 321 195
Width: 1184
GlyphClass: 2
Flags: HW
LayerCount: 2
Fore
SplineSet
1157 0 m 1
 106 0 l 1
 106 616 l 1
 -82 574 l 1
 -82 836 l 1
 106 878 l 1
 106 1578 l 1
 474 1578 l 1
 474 961 l 1
 700 1012 l 1
 700 750 l 1
 474 699 l 1
 474 253 l 1
 1157 253 l 1
 1157 0 l 1
EndSplineSet
EndChar

StartChar: lslash
Encoding: 322 322 196
Width: 684
GlyphClass: 2
Flags: HW
LayerCount: 2
Fore
SplineSet
-33 574 m 1
 -33 836 l 1
 139 881 l 1
 139 1678 l 1
 490 1726 l 1
 490 972 l 1
 662 1016 l 1
 662 754 l 1
 490 710 l 1
 490 0 l 1
 139 0 l 1
 139 619 l 1
 -33 574 l 1
EndSplineSet
EndChar

StartChar: OE
Encoding: 338 338 197
Width: 2150
GlyphClass: 2
Flags: HW
LayerCount: 2
Fore
SplineSet
1143 80 m 1
 1054.40084744 17.2422669388 946.324526159 -28 802 -28 c 0
 304.38812837 -28 92 291.177585874 92 789 c 0
 92 1171.40681887 220.5726374 1437.06978478 490 1549.5 c 128
 578.666666667 1586.5 682.666666667 1605 802 1605 c 0
 934 1605 1047.66666667 1572 1143 1506 c 1
 1143 1578 l 1
 2213 1578 l 1
 2213 1309 l 1
 1511 1309 l 1
 1511 929 l 1
 2123 929 l 1
 2123 703 l 1
 1511 703 l 1
 1511 266 l 1
 2223 266 l 1
 2223 0 l 1
 1143 0 l 1
 1143 80 l 1
1143 1232 m 1
 1060.438707 1299.91332167 952.154715466 1339 802 1339 c 0
 516.217486059 1339 461 1075.52367789 461 789 c 256
 461 563.050748549 497.789160695 369.743425608 634 281 c 128
 678 252.333333333 734 238 802 238 c 0
 953.984738109 238 1061.69982137 283.878873796 1143 356 c 1
 1143 1232 l 1
EndSplineSet
EndChar

StartChar: oe
Encoding: 339 339 198
Width: 2015
GlyphClass: 2
Flags: HW
LayerCount: 2
Fore
SplineSet
1504 212 m 0
 1629.28212985 212 1722.98636931 248.990263795 1800 304 c 1
 1866 70 l 1
 1756.13804986 13.2970579937 1631.24219163 -26 1477 -26 c 0
 1284.75089582 -26 1145.51265261 44.3971381989 1050 152 c 1
 953.333333333 33.3333333333 820 -26 650 -26 c 0
 271.698737873 -26 80 203.356403734 80 582 c 0
 80 875.560964126 195.694482015 1071.77189626 407 1154.5 c 128
 477.666666667 1182.16666667 558.333333333 1196 649 1196 c 0
 834.067194659 1196 964.414237687 1125.58041384 1053 1021 c 1
 1157 1137.66666667 1287.66666667 1196 1445 1196 c 0
 1689.06625433 1196 1833.62852469 1067.23286588 1893 880.5 c 128
 1913.66666667 815.5 1924 744 1924 666 c 2
 1924 502 l 1
 1230 502 l 1
 1235.19366641 330.609008505 1328.45741057 212 1504 212 c 0
430 584 m 0
 430 376.152512378 469.057324865 208 650 208 c 256
 830.878192641 208 870 376.364442455 870 584 c 0
 870 791.004149311 830.551068813 960 650 960 c 0
 468.598460034 960 430 791.409358597 430 584 c 0
1640 676 m 1
 1640 843.228327642 1593.55580291 960 1439 960 c 0
 1289.77102735 960 1229 826.058974641 1229 676 c 1
 1640 676 l 1
EndSplineSet
EndChar

StartChar: florin
Encoding: 402 402 204
Width: 801
GlyphClass: 2
Flags: HW
LayerCount: 2
Fore
SplineSet
86 1161 m 1
 86 1481.57801711 191.029451812 1695 494 1695 c 0
 570 1695 646.333333333 1685.33333333 723 1666 c 1
 723 1411 l 1
 678.333333333 1427.66666667 628.666666667 1436 574 1436 c 0
 527.333333333 1436 492.833333333 1416.16666667 470.5 1376.5 c 128
 448.166666667 1336.83333333 437 1265 437 1161 c 1
 717 1161 l 1
 717 1016 l 1
 436 1016 l 1
 436 0 l 1
 86 0 l 1
 86 1016 l 1
 -104 1016 l 1
 -104 1161 l 1
 86 1161 l 1
EndSplineSet
EndChar

StartChar: circumflex
Encoding: 710 710 233
Width: 922
GlyphClass: 2
Flags: HW
LayerCount: 2
Fore
SplineSet
381 1984 m 1
 635 1984 l 1
 893 1365 l 1
 619 1365 l 1
 507 1749 l 1
 395 1365 l 1
 123 1365 l 1
 381 1984 l 1
EndSplineSet
EndChar

StartChar: caron
Encoding: 711 711 234
Width: 922
GlyphClass: 2
Flags: HW
LayerCount: 2
Fore
SplineSet
379 1262 m 1
 123 1638 l 1
 301 1638 l 1
 500 1411 l 1
 699 1638 l 1
 877 1638 l 1
 621 1262 l 1
 379 1262 l 1
EndSplineSet
EndChar

StartChar: uni02C9
Encoding: 713 713 235
Width: 922
GlyphClass: 2
Flags: HW
LayerCount: 2
Fore
SplineSet
858 98 m 1
 176 98 l 1
 176 225 l 1
 858 225 l 1
 858 98 l 1
EndSplineSet
EndChar

StartChar: breve
Encoding: 728 728 236
Width: 922
GlyphClass: 2
Flags: HW
LayerCount: 2
Fore
SplineSet
830 1606 m 1
 821.889522552 1411.34854124 698.502210537 1309 494 1309 c 256
 289.484175833 1309 166.110880446 1411.33886929 158 1606 c 1
 301 1606 l 1
 315.784191945 1511.91877853 384.528745381 1462 494 1462 c 256
 603.476141349 1462 672.215316668 1511.91565152 687 1606 c 1
 830 1606 l 1
EndSplineSet
EndChar

StartChar: dotaccent
Encoding: 729 729 237
Width: 922
GlyphClass: 2
Flags: HW
LayerCount: 2
Fore
SplineSet
338 1585 m 1
 612 1585 l 1
 612 1339 l 1
 338 1339 l 1
 338 1585 l 1
EndSplineSet
EndChar

StartChar: ring
Encoding: 730 730 238
Width: 922
GlyphClass: 2
Flags: HW
LayerCount: 2
Fore
SplineSet
570.5 1493 m 128
 472.712836845 1493 390 1415.83334453 390 1316.5 c 128
 390 1217.54166606 472.291978083 1140 570.5 1140 c 128
 668.727947195 1140 750 1217.55180474 750 1316.5 c 128
 750 1415.45540316 668.730080803 1493 570.5 1493 c 128
571 1656 m 256
 714.171975404 1656 824.03845191 1583.79375539 884 1491.5 c 128
 918 1439.16666667 935 1381 935 1317 c 128
 935 1176.04867566 847.905510669 1070.72213203 750 1020 c 128
 694.666666667 991.333333333 635 977 571 977 c 256
 427.352273161 977 316.888703319 1049.3649017 256.5 1142 c 128
 222.166666667 1194.66666667 205 1252.83333333 205 1316.5 c 128
 205 1457.16835421 293.415633127 1562.48948772 391.5 1613 c 128
 447.166666667 1641.66666667 507 1656 571 1656 c 256
EndSplineSet
EndChar

StartChar: ogonek
Encoding: 731 731 239
Width: 922
GlyphClass: 2
Flags: HW
LayerCount: 2
Fore
SplineSet
781 -401 m 0
 644.740565606 -401 543 -350.545759127 543 -223 c 0
 543 -187.666666667 552 -151.833333333 570 -115.5 c 128
 588 -79.1666666667 616 -40.6666666667 654 0 c 1
 795 0 l 1
 761.666666667 -44.6666666667 738.666666667 -79.1666666667 726 -103.5 c 128
 713.333333333 -127.833333333 707 -148.666666667 707 -166 c 0
 707 -222.574811362 755.676179414 -254 815 -254 c 0
 875.564346896 -254 923.878045352 -241.848781859 971 -223 c 1
 971 -379 l 1
 908.032757548 -391.59344849 848.632194668 -401 781 -401 c 0
307 864 m 128
 307 1095.54782918 522.92800418 1196 775 1196 c 0
 853 1196 931.333333333 1185.83333333 1010 1165.5 c 128
 1088.66666667 1145.16666667 1145.33333333 1127.66666667 1180 1113 c 1
 1204 1104 l 1
 1138 882 l 1
 1058.1029256 912.645453193 904.947847028 954.251150433 803 956.5 c 128
 733.946511869 958.023238709 669.360670435 949.855865967 640.5 920 c 128
 619.654171951 898.435350294 617.244649634 830.755350366 640 808 c 128
 652.666666667 795.333333333 677 782 713 768 c 2
 1011 654 l 1
 1143.53148842 605.615488356 1226 521.805054416 1226 348 c 0
 1226 190.666666667 1157 83.3333333333 1019 26 c 0
 936.333333333 -8 848 -25 754 -25 c 0
 572.666666667 -25 424.666666667 9.33333333333 310 78 c 1
 376 306 l 1
 426 283.333333333 486.333333333 262.333333333 557 243 c 0
 623 225.666666667 681.333333333 216.333333333 732 215 c 0
 847.089695729 212.354259868 900 231.843649734 900 339 c 0
 899.333333333 374.333333333 863.333333333 406 792 434 c 2
 635 496 l 2
 502.333333333 547.333333333 416.333333333 594.333333333 377 637 c 0
 330.333333333 687.666666667 307 763.333333333 307 864 c 128
EndSplineSet
EndChar

StartChar: tilde
Encoding: 732 732 240
Width: 922
GlyphClass: 2
Flags: HW
LayerCount: 2
Fore
SplineSet
1031 1739 m 1
 1031 1567.10194009 959.407976726 1414 799 1414 c 0
 729.680925395 1414 661.686746126 1441.15512098 615 1468 c 2
 539 1512 l 2
 504.993852096 1532.78153483 458.547680105 1565 415 1565 c 0
 361.152568876 1565 355 1506.94531397 355 1440 c 1
 147 1440 l 1
 147 1630.56824749 202.179984557 1778 377 1778 c 0
 444.019948427 1778 508.934678973 1753.83919262 552 1728 c 2
 621 1685 l 2
 655.623705755 1662.9667327 703.47980202 1635 753 1635 c 0
 809.727825184 1635 811 1671.18810038 811 1739 c 1
 1031 1739 l 1
EndSplineSet
EndChar

StartChar: hungarumlaut
Encoding: 733 733 241
Width: 922
GlyphClass: 2
Flags: HW
LayerCount: 2
Fore
SplineSet
368 1638 m 1
 585 1638 l 1
 337 1262 l 1
 174 1262 l 1
 368 1638 l 1
731 1638 m 1
 962 1638 l 1
 690 1262 l 1
 516 1262 l 1
 731 1638 l 1
EndSplineSet
EndChar

StartChar: uni030F
Encoding: 783 783 242
Width: 0
GlyphClass: 2
Flags: HW
LayerCount: 2
Fore
SplineSet
-105 1262 m 1
 -268 1262 l 1
 -516 1638 l 1
 -299 1638 l 1
 -105 1262 l 1
-447 1262 m 1
 -621 1262 l 1
 -893 1638 l 1
 -662 1638 l 1
 -447 1262 l 1
EndSplineSet
EndChar

StartChar: uni0311
Encoding: 785 785 243
Width: 0
GlyphClass: 2
Flags: HW
LayerCount: 2
Fore
SplineSet
-418 1453 m 256
 -527.476141349 1453 -596.215316668 1403.08434848 -611 1309 c 1
 -754 1309 l 1
 -745.889522552 1503.65145876 -622.502210537 1606 -418 1606 c 256
 -213.484175833 1606 -90.1108804463 1503.66113071 -82 1309 c 1
 -225 1309 l 1
 -239.784191945 1403.08122147 -308.528745381 1453 -418 1453 c 256
EndSplineSet
EndChar

StartChar: uni0326
Encoding: 806 806 244
Width: 0
GlyphClass: 2
Flags: HW
LayerCount: 2
Fore
SplineSet
-602 -625 m 1
 -602 -210 l 1
 -184 -210 l 1
 -184 -572 l 2
 -184 -805.955949546 -358.094718851 -878.618113759 -539 -932 c 1
 -601 -818 l 1
 -537.666666667 -795.333333333 -492.333333333 -770 -465 -742 c 128
 -437.666666667 -714 -424 -675 -424 -625 c 1
 -602 -625 l 1
EndSplineSet
EndChar

StartChar: mu
Encoding: 956 956 245
Width: 1356
GlyphClass: 2
Flags: HW
LayerCount: 2
Fore
SplineSet
639 -15 m 0
 604.599847675 -15 551.654449585 -2.13952146465 527.5 7 c 128
 515.166666667 11.6666666667 508.666666667 14.6666666667 508 16 c 2
 508 -488 l 1
 158 -428 l 1
 158 1161 l 1
 508 1161 l 1
 508 277 l 1
 554.397031007 253.801484496 609.55804903 229.918334288 670.5 221 c 128
 765.852344053 207.045998431 849.772552178 246.497600075 893 296 c 1
 893 1161 l 1
 1245 1161 l 1
 1245 1 l 1
 997 1 l 1
 919 168 l 1
 887.81149388 57.1075337964 783.685225633 -15 639 -15 c 0
EndSplineSet
EndChar

StartChar: pi
Encoding: 960 960 246
Width: 1458
GlyphClass: 2
Flags: HW
LayerCount: 2
Fore
SplineSet
78 737 m 1
 116.169623903 998.922591613 215.675417702 1092 512 1092 c 2
 1467 1092 l 1
 1428 868 l 1
 1252 868 l 1
 1098 0 l 1
 811 0 l 1
 963 868 l 1
 725 868 l 1
 574 0 l 1
 287 0 l 1
 439 868 l 1
 414 868 l 2
 330.730569712 868 302.640897019 817.158099728 291 738 c 1
 78 737 l 1
EndSplineSet
EndChar

StartChar: uni2010
Encoding: 8208 8208 258
Width: 766
GlyphClass: 2
Flags: HW
LayerCount: 2
Fore
SplineSet
894 574 m 1
 100 574 l 1
 100 836 l 1
 894 836 l 1
 894 574 l 1
EndSplineSet
EndChar

StartChar: uni2011
Encoding: 8209 8209 259
Width: 766
GlyphClass: 2
Flags: HW
LayerCount: 2
Fore
SplineSet
894 574 m 1
 100 574 l 1
 100 836 l 1
 894 836 l 1
 894 574 l 1
EndSplineSet
EndChar

StartChar: endash
Encoding: 8211 8211 260
Width: 922
GlyphClass: 2
Flags: HW
LayerCount: 2
Fore
SplineSet
98 574 m 1
 98 836 l 1
 796 836 l 1
 796 574 l 1
 98 574 l 1
EndSplineSet
EndChar

StartChar: emdash
Encoding: 8212 8212 261
Width: 1843
GlyphClass: 2
Flags: HW
LayerCount: 2
Fore
SplineSet
98 574 m 1
 98 836 l 1
 1820 836 l 1
 1820 574 l 1
 98 574 l 1
EndSplineSet
EndChar

StartChar: quoteleft
Encoding: 8216 8216 262
Width: 700
GlyphClass: 2
Flags: HW
LayerCount: 2
Fore
SplineSet
608 1271 m 1
 608 856 l 1
 190 856 l 1
 190 1218 l 2
 190 1451.95594955 364.094718851 1524.61811376 545 1578 c 1
 607 1464 l 1
 543.666666667 1441.33333333 498.333333333 1416 471 1388 c 128
 443.666666667 1360 430 1321 430 1271 c 1
 608 1271 l 1
EndSplineSet
EndChar

StartChar: quoteright
Encoding: 8217 8217 263
Width: 700
GlyphClass: 2
Flags: HW
LayerCount: 2
Fore
SplineSet
117 1163 m 1
 117 1578 l 1
 535 1578 l 1
 535 1216 l 2
 535 982.044050454 360.905281149 909.381886241 180 856 c 1
 118 970 l 1
 181.333333333 992.666666667 226.666666667 1018 254 1046 c 128
 281.333333333 1074 295 1113 295 1163 c 1
 117 1163 l 1
EndSplineSet
EndChar

StartChar: quotesinglbase
Encoding: 8218 8218 264
Width: 700
GlyphClass: 2
Flags: HW
LayerCount: 2
Fore
SplineSet
131 0 m 1
 131 415 l 1
 549 415 l 1
 549 53 l 2
 549 -180.955949546 374.905281149 -253.618113759 194 -307 c 1
 132 -193 l 1
 195.333333333 -170.333333333 240.666666667 -145 268 -117 c 128
 295.333333333 -89 309 -50 309 0 c 1
 131 0 l 1
EndSplineSet
EndChar

StartChar: quotedblleft
Encoding: 8220 8220 265
Width: 1210
GlyphClass: 2
Flags: HW
LayerCount: 2
Fore
SplineSet
608 1271 m 1
 608 856 l 1
 190 856 l 1
 190 1218 l 2
 190 1451.95594955 364.094718851 1524.61811376 545 1578 c 1
 607 1464 l 1
 543.666666667 1441.33333333 498.333333333 1416 471 1388 c 128
 443.666666667 1360 430 1321 430 1271 c 1
 608 1271 l 1
1132 1271 m 1
 1132 856 l 1
 714 856 l 1
 714 1218 l 2
 714 1451.95594955 888.094718851 1524.61811376 1069 1578 c 1
 1131 1464 l 1
 1067.66666667 1441.33333333 1022.33333333 1416 995 1388 c 128
 967.666666667 1360 954 1321 954 1271 c 1
 1132 1271 l 1
EndSplineSet
EndChar

StartChar: quotedblright
Encoding: 8221 8221 266
Width: 1210
GlyphClass: 2
Flags: HW
LayerCount: 2
Fore
SplineSet
694 1163 m 1
 694 1578 l 1
 1112 1578 l 1
 1112 1216 l 2
 1112 982.044050454 937.905281149 909.381886241 757 856 c 1
 695 970 l 1
 758.333333333 992.666666667 803.666666667 1018 831 1046 c 128
 858.333333333 1074 872 1113 872 1163 c 1
 694 1163 l 1
170 1163 m 1
 170 1578 l 1
 588 1578 l 1
 588 1216 l 2
 588 982.044050454 413.905281149 909.381886241 233 856 c 1
 171 970 l 1
 234.333333333 992.666666667 279.666666667 1018 307 1046 c 128
 334.333333333 1074 348 1113 348 1163 c 1
 170 1163 l 1
EndSplineSet
EndChar

StartChar: quotedblbase
Encoding: 8222 8222 267
Width: 1210
GlyphClass: 2
Flags: HW
LayerCount: 2
Fore
SplineSet
655 0 m 1
 655 415 l 1
 1073 415 l 1
 1073 53 l 2
 1073 -180.955949546 898.905281149 -253.618113759 718 -307 c 1
 656 -193 l 1
 719.333333333 -170.333333333 764.666666667 -145 792 -117 c 128
 819.333333333 -89 833 -50 833 0 c 1
 655 0 l 1
131 0 m 1
 131 415 l 1
 549 415 l 1
 549 53 l 2
 549 -180.955949546 374.905281149 -253.618113759 194 -307 c 1
 132 -193 l 1
 195.333333333 -170.333333333 240.666666667 -145 268 -117 c 128
 295.333333333 -89 309 -50 309 0 c 1
 131 0 l 1
EndSplineSet
EndChar

StartChar: dagger
Encoding: 8224 8224 268
Width: 922
GlyphClass: 2
Flags: HW
LayerCount: 2
Fore
SplineSet
336 1493 m 1
 666 1493 l 1
 666 1112 l 1
 957 1112 l 1
 957 874 l 1
 666 874 l 1
 666 -197 l 1
 336 -197 l 1
 336 874 l 1
 47 874 l 1
 47 1112 l 1
 336 1112 l 1
 336 1493 l 1
EndSplineSet
EndChar

StartChar: daggerdbl
Encoding: 8225 8225 269
Width: 922
GlyphClass: 2
Flags: HW
LayerCount: 2
Fore
SplineSet
336 1493 m 1
 666 1493 l 1
 666 1112 l 1
 957 1112 l 1
 957 874 l 1
 666 874 l 1
 666 422 l 1
 957 422 l 1
 957 184 l 1
 666 184 l 1
 666 -197 l 1
 336 -197 l 1
 336 184 l 1
 45 184 l 1
 45 422 l 1
 336 422 l 1
 336 874 l 1
 47 874 l 1
 47 1112 l 1
 336 1112 l 1
 336 1493 l 1
EndSplineSet
EndChar

StartChar: bullet
Encoding: 8226 8226 270
Width: 1178
GlyphClass: 2
Flags: HW
LayerCount: 2
Fore
SplineSet
1050 680.5 m 128
 1050 531.850922795 953.249112456 419.988542834 849 365 c 0
 789 333 725 317 657 317 c 128
 504.768941276 317 384.18777111 398.839031683 320.5 497 c 128
 284.166666667 553 266 614 266 680 c 128
 266 828.854166778 361.537679322 939.745304968 465 995.5 c 128
 525 1027.83333333 589 1044 657 1044 c 128
 809.361484171 1044 930.876459418 960.934134706 995 863 c 128
 1031.66666667 807 1050 746.166666667 1050 680.5 c 128
EndSplineSet
EndChar

StartChar: ellipsis
Encoding: 8230 8230 271
Width: 1843
GlyphClass: 2
Flags: HW
LayerCount: 2
Fore
SplineSet
338 0 m 128
 228.234362367 0 145 83.9307569393 145 194 c 128
 145 303.407765029 228.894734729 388 338 388 c 128
 447.032963421 388 534 303.406851652 534 194 c 128
 534 84.588163532 447.032519392 0 338 0 c 128
880 0 m 128
 770.234362367 0 687 83.9307569393 687 194 c 128
 687 303.407765029 770.894734729 388 880 388 c 128
 989.032963421 388 1076 303.406851652 1076 194 c 128
 1076 84.588163532 989.032519392 0 880 0 c 128
1440 0 m 128
 1330.23436237 0 1247 83.9307569393 1247 194 c 128
 1247 303.407765029 1330.89473473 388 1440 388 c 128
 1549.03296342 388 1636 303.406851652 1636 194 c 128
 1636 84.588163532 1549.03251939 0 1440 0 c 128
EndSplineSet
EndChar

StartChar: perthousand
Encoding: 8240 8240 273
Width: 2654
GlyphClass: 2
Flags: HW
LayerCount: 2
Fore
SplineSet
446 917 m 0
 569.526190157 917 606 1009.99995584 606 1150 c 0
 606 1283.02605657 574.473232018 1379 446 1379 c 0
 324.351030456 1379 290 1287.83491821 290 1150 c 0
 290 1017.18407666 318.855871396 917 446 917 c 0
59 1130 m 0
 59 1403.35448814 168.834927796 1579 438 1579 c 0
 621.390292229 1579 736.014290695 1504.34502661 797.5 1384.5 c 128
 832.834515915 1315.62763847 849 1248.01771095 849 1152 c 0
 849 887.089556261 714.206756785 711 446 711 c 0
 212.513585102 711 91.4827639811 854.62754654 64 1058 c 128
 60.6666666667 1082.66666667 59 1106.66666667 59 1130 c 0
1504 206 m 0
 1627.52619016 206 1664 298.999955838 1664 439 c 0
 1664 573.114228455 1633.58978222 668 1504 668 c 0
 1383.22809342 668 1348 576.26026884 1348 439 c 0
 1348 307.024097046 1377.64080608 206 1504 206 c 0
455 -29 m 1
 1222 1674 l 1
 1449 1592 l 1
 674 -107 l 1
 455 -29 l 1
1117 419 m 0
 1117 692.354488137 1226.8349278 868 1496 868 c 0
 1765.92845886 868 1907 706.657406469 1907 441 c 0
 1907 176.025263323 1772.45485767 0 1504 0 c 0
 1270.75346518 0 1149.4668034 143.745654852 1122 347 c 128
 1118.66666667 371.666666667 1117 395.666666667 1117 419 c 0
2393 206 m 0
 2516.52619016 206 2553 298.999955838 2553 439 c 0
 2553 573.114228455 2522.58978222 668 2393 668 c 0
 2272.22809342 668 2237 576.26026884 2237 439 c 0
 2237 307.024097046 2266.64080608 206 2393 206 c 0
2006 419 m 0
 2006 692.354488137 2115.8349278 868 2385 868 c 0
 2654.92845886 868 2796 706.657406469 2796 441 c 0
 2796 176.025263323 2661.45485767 0 2393 0 c 0
 2159.75346518 0 2038.4668034 143.745654852 2011 347 c 128
 2007.66666667 371.666666667 2006 395.666666667 2006 419 c 0
EndSplineSet
EndChar

StartChar: guilsinglleft
Encoding: 8249 8249 274
Width: 760
GlyphClass: 2
Flags: HW
LayerCount: 2
Fore
SplineSet
141 476 m 1
 141 712 l 1
 981 1225 l 1
 982 924 l 1
 436 594 l 1
 982 264 l 1
 981 -37 l 1
 141 476 l 1
EndSplineSet
EndChar

StartChar: guilsinglright
Encoding: 8250 8250 275
Width: 760
GlyphClass: 2
Flags: HW
LayerCount: 2
Fore
SplineSet
1015 476 m 1
 175 -37 l 1
 174 264 l 1
 712 594 l 1
 174 924 l 1
 175 1225 l 1
 1015 712 l 1
 1015 476 l 1
EndSplineSet
EndChar

StartChar: fraction
Encoding: 8260 8260 276
Width: 307
GlyphClass: 2
Flags: HW
LayerCount: 2
Fore
SplineSet
-367 358 m 1
 204 2085 l 1
 485 1996 l 1
 -91 271 l 1
 -367 358 l 1
EndSplineSet
EndChar

StartChar: foursuperior
Encoding: 8308 8308 278
Width: 1159
GlyphClass: 2
Flags: HW
LayerCount: 2
Fore
SplineSet
653 1579 m 1
 860 1526 l 1
 860 859 l 1
 999 859 l 1
 999 652 l 1
 860 652 l 1
 860 431 l 1
 616 432 l 1
 616 652 l 1
 167 652 l 1
 134 813 l 1
 653 1579 l 1
440 857 m 1
 616 857 l 1
 616 1153 l 1
 440 857 l 1
EndSplineSet
EndChar

StartChar: Euro
Encoding: 8364 8364 279
Width: 1282
GlyphClass: 2
Flags: HW
LayerCount: 2
Fore
SplineSet
766 942 m 1
 734.037181751 956.649625031 694.638499131 966 648 966 c 0
 515.086553364 966 447.33810797 889.014323909 414 789 c 1
 580 789 l 1
 580 645 l 1
 386 645 l 1
 384.678112164 626.493570295 384 611.491579379 384 592 c 2
 384 557 l 1
 580 557 l 1
 580 413 l 1
 404 413 l 1
 435.189837055 295.726212673 504.213290728 213 648 213 c 0
 694.718291696 213 732.965879724 222.317694874 765 237 c 1
 765 -19 l 1
 720.681801359 -25.714878582 676.986154389 -27 626 -27 c 0
 309.655819161 -27 133.075759285 147.413627646 81 413 c 1
 -35 413 l 1
 -35 557 l 1
 64 557 l 1
 64 617.5 l 130
 64 626.5 64.3333333333 635.666666667 65 645 c 1
 -35 645 l 1
 -35 789 l 1
 85 789 l 1
 141.780391794 1044.51176307 317.038065169 1206 628 1206 c 0
 674.776132135 1206 724.221889185 1203.22226385 766 1198 c 1
 766 942 l 1
EndSplineSet
EndChar

StartChar: trademark
Encoding: 8482 8482 280
Width: 1843
GlyphClass: 2
Flags: HW
LayerCount: 2
Fore
SplineSet
1018 1330 m 1
 762 1330 l 1
 762 486 l 1
 527 486 l 1
 527 1330 l 1
 266 1330 l 1
 266 1492 l 1
 1018 1492 l 1
 1018 1330 l 1
1544 486 m 1
 1316 1178 l 1
 1316 486 l 1
 1121 486 l 1
 1121 1492 l 1
 1398 1492 l 1
 1648 746 l 1
 1907 1492 l 1
 2185 1492 l 1
 2185 486 l 1
 1990 486 l 1
 1990 1178 l 1
 1763 486 l 1
 1544 486 l 1
EndSplineSet
EndChar

StartChar: Delta
Encoding: 8710 8710 281
Width: 1284
GlyphClass: 2
Flags: HW
LayerCount: 2
Fore
SplineSet
480 1573 m 1
 960 467 l 1
 0 467 l 1
 480 1573 l 1
480 1249 m 1
 195 552 l 1
 765 552 l 1
 480 1249 l 1
EndSplineSet
EndChar

StartChar: product
Encoding: 8719 8719 282
Width: 1450
GlyphClass: 2
Flags: HW
LayerCount: 2
Fore
SplineSet
135 1473 m 1
 1443 1473 l 1
 1443 -393 l 1
 1099 -393 l 1
 1099 1184 l 1
 479 1184 l 1
 479 -393 l 1
 135 -393 l 1
 135 1473 l 1
EndSplineSet
EndChar

StartChar: summation
Encoding: 8721 8721 283
Width: 1323
GlyphClass: 2
Flags: HW
LayerCount: 2
Fore
SplineSet
62 1473 m 1
 1370 1473 l 1
 1370 1208 l 1
 492 1208 l 1
 1112 563 l 1
 490 -127 l 1
 1423 -127 l 1
 1423 -393 l 1
 37 -393 l 1
 37 -221 l 1
 735 551 l 1
 62 1241 l 1
 62 1473 l 1
EndSplineSet
EndChar

StartChar: radical
Encoding: 8730 8730 285
Width: 1229
GlyphClass: 2
Flags: HW
LayerCount: 2
Fore
SplineSet
1147 1714 m 1
 1362 1714 l 1
 1362 1565 l 1
 1266 1565 l 1
 676 -41 l 1
 557 -41 l 1
 250 805 l 1
 105 750 l 1
 68 879 l 1
 428 1006 l 1
 651 371 l 1
 1147 1714 l 1
EndSplineSet
EndChar

StartChar: infinity
Encoding: 8734 8734 286
Width: 1536
GlyphClass: 2
Flags: HW
LayerCount: 2
Fore
SplineSet
1368 606 m 0
 1368 707.515940436 1290.16049683 784 1189 784 c 0
 1141 784 1097.16666667 767.166666667 1057.5 733.5 c 128
 1017.83333333 699.833333333 975.666666667 642.333333333 931 561 c 1
 979.810257604 484.946807919 1051.3736426 426 1165 426 c 0
 1278.30351929 426 1368 495.767213393 1368 606 c 0
290 612 m 0
 290 509.958589315 366.986933876 434 469 434 c 0
 516.333333333 434 560.333333333 451.5 601 486.5 c 128
 641.666666667 521.5 683.666666667 578.333333333 727 657 c 1
 677.597497123 733.975992855 608.526149754 791 493 791 c 0
 379.712391301 791 290 722.236775575 290 612 c 0
1488 610 m 0
 1488 388.411248322 1381.28594108 186 1173 186 c 0
 1112.33333333 186 1057 204.333333333 1007 241 c 128
 957 277.666666667 898.333333333 344.666666667 831 442 c 1
 785.666666667 355.333333333 736.5 291 683.5 249 c 128
 630.5 207 571.666666667 186 507 186 c 0
 414.333333333 186 335 226.5 269 307.5 c 128
 203 388.5 170 488.666666667 170 608 c 0
 170 828.895883656 277.111970425 1030 485 1030 c 0
 545 1030 600.5 1011.16666667 651.5 973.5 c 128
 702.5 935.833333333 761 869.333333333 827 774 c 1
 874.333333333 862 924.333333333 927 977 969 c 128
 1029.66666667 1011 1087.66666667 1032 1151 1032 c 0
 1244.33333333 1032 1323.83333333 991.666666667 1389.5 911 c 128
 1455.16666667 830.333333333 1488 730 1488 610 c 0
EndSplineSet
EndChar

StartChar: integral
Encoding: 8747 8747 287
Width: 1124
GlyphClass: 2
Flags: HW
LayerCount: 2
Fore
SplineSet
304 -205 m 0
 304 -233.870584316 311.249421538 -248 338 -248 c 0
 404 -248 443.666666667 -25.6666666667 457 419 c 0
 459 486.333333333 460.333333333 537.666666667 461 573 c 0
 472.333333333 921.666666667 515.833333333 1172.66666667 591.5 1326 c 128
 667.166666667 1479.33333333 783.666666667 1556 941 1556 c 0
 1068.25198335 1556 1176 1487.37511097 1176 1366 c 0
 1176 1280.54085668 1114.68798902 1223 1029 1223 c 0
 938.949588561 1223 900 1280.9496022 900 1374 c 0
 900 1413.31166071 898.333488771 1434 867 1434 c 0
 799.666666667 1434 758.333333333 1211.66666667 743 767 c 0
 735.979454242 556.383627251 722.692537707 300.583546712 709.5 203.5 c 128
 680.835198077 -7.44354235846 609.52321887 -190.380234193 492.5 -290 c 128
 427.5 -345.333333333 351 -373 263 -373 c 0
 132.390383666 -373 27 -306.978009971 27 -182 c 0
 27 -93.1537048371 90.7457513468 -39 181 -39 c 0
 264.302136086 -39 306 -92.6005157868 306 -178 c 0
 306 -186 305.333333333 -194 304 -202 c 0
 304 -204 304 -204 304 -205 c 0
EndSplineSet
EndChar

StartChar: approxequal
Encoding: 8776 8776 288
Width: 1544
GlyphClass: 2
Flags: HW
LayerCount: 2
Fore
SplineSet
1477 1059 m 1
 1477 815 l 1
 1406.33333333 761.666666667 1341.16666667 723.5 1281.5 700.5 c 128
 1221.83333333 677.5 1160 666 1096 666 c 0
 1024.66666667 666 941.333333333 685.333333333 846 724 c 1
 751.676709988 764.424267148 620.488918611 803 553 803 c 0
 494.333333333 803 436.333333333 790.166666667 379 764.5 c 128
 321.666666667 738.833333333 260.333333333 698.333333333 195 643 c 1
 195 887 l 1
 265 939 329.833333333 976.5 389.5 999.5 c 128
 449.166666667 1022.5 511.333333333 1034 576 1034 c 0
 657.018697924 1034 774.534038817 1000.91398336 870 960 c 1
 973.333333333 919.333333333 1056.33333333 899 1119 899 c 0
 1176.33333333 899 1233.16666667 911.5 1289.5 936.5 c 128
 1345.83333333 961.5 1408.33333333 1002.33333333 1477 1059 c 1
1477 641 m 1
 1477 397 l 1
 1406.33333333 343.666666667 1341.16666667 305.5 1281.5 282.5 c 128
 1221.83333333 259.5 1160 248 1096 248 c 0
 1020.77654169 248 914.782830379 275.207630943 823 316 c 0
 819 317.333333333 812 320 802 324 c 0
 698.666666667 364.666666667 615.666666667 385 553 385 c 0
 494.333333333 385 436.333333333 372.333333333 379 347 c 128
 321.666666667 321.666666667 260.333333333 281 195 225 c 1
 195 469 l 1
 266.333333333 522.333333333 331.666666667 560.5 391 583.5 c 128
 450.333333333 606.5 512 618 576 618 c 0
 651.237607294 618 755.087981225 590.819436618 848 551 c 1
 949.123433682 513.078712369 1053.50437847 481 1119 481 c 0
 1176.33333333 481 1233.16666667 493.5 1289.5 518.5 c 128
 1345.83333333 543.5 1408.33333333 584.333333333 1477 641 c 1
EndSplineSet
EndChar

StartChar: lessequal
Encoding: 8804 8804 290
Width: 1544
GlyphClass: 2
Flags: HW
LayerCount: 2
Fore
SplineSet
195 894 m 1
 195 1130 l 1
 1035 1643 l 1
 1036 1342 l 1
 490 1012 l 1
 1036 682 l 1
 1035 381 l 1
 195 894 l 1
EndSplineSet
EndChar

StartChar: greaterequal
Encoding: 8805 8805 291
Width: 1544
GlyphClass: 2
Flags: HW
LayerCount: 2
Fore
SplineSet
1036 894 m 1
 196 381 l 1
 195 682 l 1
 733 1012 l 1
 195 1342 l 1
 196 1643 l 1
 1036 1130 l 1
 1036 894 l 1
EndSplineSet
EndChar

StartChar: lozenge
Encoding: 9674 9674 292
Width: 909
GlyphClass: 2
Flags: HW
LayerCount: 2
Fore
SplineSet
484 1249 m 1
 169 592 l 1
 484 -73 l 1
 799 592 l 1
 484 1249 l 1
484 1573 m 1
 964 592 l 1
 484 -397 l 1
 4 592 l 1
 484 1573 l 1
EndSplineSet
EndChar

StartChar: fi
Encoding: 64257 64257 293
Width: 1366
GlyphClass: 2
Flags: HW
LayerCount: 2
Fore
SplineSet
637 1695 m 0
 720.707170767 1695 794.869000077 1683.16955171 866 1666 c 1
 866 1411 l 1
 822 1427.66666667 772.333333333 1436 717 1436 c 0
 587.912632652 1436 580 1295.94338586 580 1160 c 1
 1075 1159 l 1
 1388 1159 l 1
 1388 -3 l 1
 1038 -3 l 1
 1038 1015 l 1
 579 1015 l 1
 579 0 l 1
 229 0 l 1
 229 1015 l 1
 39 1015 l 1
 39 1160 l 1
 229 1160 l 1
 229 1481.36164557 333.607417524 1695 637 1695 c 0
1213 1413 m 0
 1102.51025493 1413 1020 1496.21035751 1020 1607 c 0
 1020 1697.59554399 1072.45255755 1758.33681038 1137 1786 c 128
 1160.33333333 1796 1185.66666667 1801 1213 1801 c 0
 1303.48930448 1801 1365.41201737 1747.83054086 1393.5 1683.5 c 128
 1403.83333333 1659.83333333 1409 1634.33333333 1409 1607 c 256
 1409 1516.16626491 1354.55397066 1455.48759324 1289.5 1428 c 128
 1265.83333333 1418 1240.33333333 1413 1213 1413 c 0
EndSplineSet
EndChar

StartChar: fl
Encoding: 64258 64258 294
Width: 1366
GlyphClass: 2
Flags: HW
LayerCount: 2
Fore
SplineSet
225 1160 m 1
 225 1481.36164557 329.607417524 1695 633 1695 c 2
 1367 1695 l 1
 1367 0 l 1
 1016 0 l 1
 1016 1436 l 1
 713 1436 l 2
 583.912632652 1436 576 1295.94338586 576 1160 c 1
 856 1160 l 1
 856 1015 l 1
 575 1015 l 1
 575 0 l 1
 225 0 l 1
 225 1015 l 1
 35 1015 l 1
 35 1160 l 1
 225 1160 l 1
EndSplineSet
EndChar

StartChar: twosuperior
Encoding: 65540 -1 296
Width: 807
GlyphClass: 2
Flags: HW
LayerCount: 2
Fore
SplineSet
98 1473 m 1
 188.602528362 1518.30126418 321.864626329 1575 460 1575 c 0
 626.029887916 1575 758.43166002 1519.20077268 810 1402 c 128
 824.666666667 1368.66666667 832 1331 832 1289 c 0
 832 1226.33333333 816.666666667 1169.16666667 786 1117.5 c 128
 755.333333333 1065.83333333 701.333333333 1006.33333333 624 939 c 1
 509 836 l 1
 807 836 l 1
 807 622 l 1
 120 622 l 1
 120 796 l 1
 380 1016 l 1
 385.453105858 1018.72655293 428.937067615 1055.93706761 433 1060 c 2
 460 1083 l 2
 473.333333333 1094.33333333 482.666666667 1103.33333333 488 1110 c 2
 511 1136 l 1
 538.369300767 1163.36930077 565 1199.8623516 565 1251 c 0
 565 1331.82568583 525.201018131 1366 442 1366 c 0
 383.430723362 1366 318.940797653 1345.20305359 272 1326 c 2
 208 1300 l 2
 194.666666667 1294 182.666666667 1288.33333333 172 1283 c 1
 171 1282 l 1
 98 1473 l 1
EndSplineSet
EndChar

StartChar: threesuperior
Encoding: 65541 -1 297
Width: 807
GlyphClass: 2
Flags: HW
LayerCount: 2
Fore
SplineSet
314 1213 m 1
 417.178832991 1213 533 1238.66273985 533 1340 c 0
 533 1405.83468074 470.57387574 1429 401 1429 c 0
 313.413799444 1429 235.871918162 1399.94510778 173 1373 c 1
 82 1556 l 1
 157.971330613 1599.41218892 259.753483341 1639 381 1639 c 0
 613.217681851 1639 777.592235901 1563.32019463 781 1335 c 1
 783.89414995 1226.46937688 710.725647786 1136.77415547 620 1115 c 1
 720.425029878 1090.50609027 810 988.657708157 810 868 c 256
 810 631.269921432 633.104489398 536 396 536 c 0
 303.700824259 536 217.021837611 550.616049023 149.5 571 c 128
 123.461527993 578.860670794 114.272232309 583.169043296 96 591 c 1
 163 792 l 1
 164 792 l 1
 212.651931128 771.966851889 313.092423615 743 388 743 c 0
 487.022736813 743 551 770.726847127 551 866 c 0
 551 938.51932141 487.512274921 982.972593657 428 1001.5 c 128
 392.666666667 1012.5 354.666666667 1017.33333333 314 1016 c 1
 314 1213 l 1
EndSplineSet
EndChar

StartChar: onesuperior
Encoding: 65542 -1 298
Width: 807
GlyphClass: 2
Flags: HW
LayerCount: 2
Fore
SplineSet
311 702 m 1
 311 1416 l 1
 186 1362 l 1
 111 1552 l 1
 325 1639 l 1
 589 1637 l 1
 589 702 l 1
 311 702 l 1
EndSplineSet
EndChar

StartChar: dotaccentcmb
Encoding: 775 775 342
Width: 1024
Flags: HW
LayerCount: 2
Fore
SplineSet
375 1585 m 1
 649 1585 l 1
 649 1339 l 1
 375 1339 l 1
 375 1585 l 1
EndSplineSet
EndChar

StartChar: commaaccent
Encoding: 65549 -1 343
Width: 713
Flags: HW
LayerCount: 2
Fore
SplineSet
147 418 m 1
 147 833 l 1
 565 833 l 1
 565 471 l 2
 565 237.044050454 390.905281149 164.381886241 210 111 c 1
 148 225 l 1
 211.333333333 247.666666667 256.666666667 273 284 301 c 128
 311.333333333 329 325 368 325 418 c 1
 147 418 l 1
EndSplineSet
EndChar

StartChar: grave.cap
Encoding: 65550 -1 344
Width: 974
Flags: HW
LayerCount: 2
Fore
SplineSet
452 1321 m 1
 94 1863 l 1
 406 2008 l 1
 609 1395 l 1
 452 1321 l 1
EndSplineSet
EndChar

StartChar: acute.cap
Encoding: 65551 -1 345
Width: 974
Flags: HW
LayerCount: 2
Fore
SplineSet
522 1321 m 1
 365 1395 l 1
 568 2008 l 1
 880 1863 l 1
 522 1321 l 1
EndSplineSet
EndChar

StartChar: circumflex.cap
Encoding: 65552 -1 346
Width: 1024
Flags: HW
LayerCount: 2
Fore
SplineSet
393 1984 m 1
 647 1984 l 1
 905 1365 l 1
 631 1365 l 1
 519 1749 l 1
 407 1365 l 1
 135 1365 l 1
 393 1984 l 1
EndSplineSet
EndChar

StartChar: dieresis.cap
Encoding: 65553 -1 347
Width: 1453
Flags: HW
LayerCount: 2
Fore
SplineSet
1060 1297 m 128
 950.234362367 1297 867 1380.93075694 867 1491 c 128
 867 1600.40776503 950.894734729 1685 1060 1685 c 128
 1169.03296342 1685 1256 1600.40685165 1256 1491 c 128
 1256 1381.58816353 1169.03251939 1297 1060 1297 c 128
390 1297 m 128
 280.234362367 1297 197 1380.93075694 197 1491 c 128
 197 1600.40776503 280.894734729 1685 390 1685 c 128
 499.032963421 1685 586 1600.40685165 586 1491 c 128
 586 1381.58816353 499.032519392 1297 390 1297 c 128
EndSplineSet
EndChar

StartChar: caron.cap
Encoding: 65554 -1 348
Width: 1024
Flags: HW
LayerCount: 2
Fore
SplineSet
391 1262 m 1
 135 1638 l 1
 313 1638 l 1
 512 1411 l 1
 711 1638 l 1
 889 1638 l 1
 633 1262 l 1
 391 1262 l 1
EndSplineSet
EndChar

StartChar: ring.cap
Encoding: 65555 -1 349
Width: 1024
Flags: HW
LayerCount: 2
Fore
SplineSet
592.5 1493 m 128
 494.712836845 1493 412 1415.83334453 412 1316.5 c 128
 412 1217.54166606 494.291978083 1140 592.5 1140 c 128
 690.727947195 1140 772 1217.55180474 772 1316.5 c 128
 772 1415.45540316 690.730080803 1493 592.5 1493 c 128
593 1656 m 256
 736.171975404 1656 846.03845191 1583.79375539 906 1491.5 c 128
 940 1439.16666667 957 1381 957 1317 c 128
 957 1176.04867566 869.905510669 1070.72213203 772 1020 c 128
 716.666666667 991.333333333 657 977 593 977 c 256
 449.352273161 977 338.888703319 1049.3649017 278.5 1142 c 128
 244.166666667 1194.66666667 227 1252.83333333 227 1316.5 c 128
 227 1457.16835421 315.415633127 1562.48948772 413.5 1613 c 128
 469.166666667 1641.66666667 529 1656 593 1656 c 256
EndSplineSet
EndChar

StartChar: tilde.cap
Encoding: 65556 -1 350
Width: 1024
Flags: HW
LayerCount: 2
Fore
SplineSet
1048 1739 m 1
 1048 1567.10194009 976.407976726 1414 816 1414 c 0
 746.680925395 1414 678.686746126 1441.15512098 632 1468 c 2
 556 1512 l 2
 521.993852096 1532.78153483 475.547680105 1565 432 1565 c 0
 378.152568876 1565 372 1506.94531397 372 1440 c 1
 164 1440 l 1
 164 1630.56824749 219.179984557 1778 394 1778 c 0
 461.019948427 1778 525.934678973 1753.83919262 569 1728 c 2
 638 1685 l 2
 672.623705755 1662.9667327 720.47980202 1635 770 1635 c 0
 826.727825184 1635 828 1671.18810038 828 1739 c 1
 1048 1739 l 1
EndSplineSet
EndChar

StartChar: dotaccentcmb.cap
Encoding: 65557 -1 351
Width: 1024
Flags: HW
LayerCount: 2
Fore
SplineSet
375 1585 m 1
 649 1585 l 1
 649 1339 l 1
 375 1339 l 1
 375 1585 l 1
EndSplineSet
EndChar

StartChar: dotlessj
Encoding: 567 567 352
Width: 631
Flags: HW
LayerCount: 2
Fore
SplineSet
-59 -113 m 1
 62.6161384278 -45.1756151075 150 33.1710732178 150 223 c 2
 150 1160 l 1
 501 1160 l 1
 501 203 l 2
 501 -33.8413883745 374.678119692 -190.295519437 223.5 -279.5 c 128
 169.833333333 -311.166666667 112.666666667 -334 52 -348 c 1
 -59 -113 l 1
324 1410 m 128
 213.878517482 1410 135 1494.02575061 135 1604.5 c 128
 135 1714.3429506 214.535560065 1798 324 1798 c 128
 433.463291319 1798 513 1714.33686932 513 1604.5 c 128
 513 1494.68593171 433.462392982 1410 324 1410 c 128
EndSplineSet
EndChar
